<svg xmlns="http://www.w3.org/2000/svg" viewBox="0 0 137.3 96"><path fill="#FFF" d="M136.8 20.8l-1.8-1c-.1 0-.1-.1-.2-.1-1.9-1.9-6.9-5.4-7.6-10.8.8-.1 2.5-.4 3-.7 1.1-.6 2.4-2.7 2.4-2.7s-1.7-1.5-4-1.5c-.4-.7-1.7-2.3-4.4-2.9-1.2-.3-4.7-.3-5.2-.3-.5-.3-1-.6-1.2-.6 0 0-.2.3-.4.3-.1 0-.2-.3-.3-.2-.1.1 0 .3-.1.3-.2.1-.5-.5-.6-.4-.2.1-.2.8-.2.8-.1 0-.5-.6-.8-.7-.2-.1-.4.5-.6.4-.4-.1-.7-.2-.7-.2s.1.8-.1.8c-.1 0-.4-.8-.6-.8-.1 0 .2 1 .1 1.1-.1 0-.7-.9-.8-.8-.2.2.4.6.2.8 0 0-.8-.5-.9-.5-.2.2.4.9.4.9s-1.2-1.1-3.1.2c-1.4 1-.6 2.4-.6 2.4L104 7.8c-.5.3-1 .6-1.6.8l-11.5 4.2c-2 .9-2.4.8-4.5.8l-7.9-.9c-.6 0-1.1-.1-1.7 0 0 0-11.4 2-28.3 2-4.5 0-10.3-.5-13.8-1.1-2.1-.4-5.3.2-9.2.3-6.3.2-13.6.1-13.6.1-1.4.1-3.7 1.8-4.1 2.2L5.4 19l-2.1 4.3c-.2.2-.7 2.7-.9 5.7-.2 2.8 0 6 0 6.5.6 7.4.7 13 .7 13 0 .1.3 5.7-.3 8.4-1.7 7-2.2 6.3-2.4 8.6-.5 5.6.7 4.3.9 4.8l1.2 4.5c.5 1.5 2.1-3.3 2.5-5l.6-10.7c0-.2-.4-23.6-.4-23.8 0 0 .7-8.7 1.1-8 .1.2.4 3.8 1.1 7 .6 2.3 1.6 4 2.1 6.3.5 2.5.6 4.7.8 5.4l1 3.7c.1.4-.2 1.2-.4 1.5l-1.3 5.4-.8 1.9V60l-.9 1-.8 1.7c-.1.2-.1.4-.1.6 0 0-.6 3.7-.3 4.9.5 2.1-.2 7.1-.2 7.1s-.7 9.5-1.4 11.5c-.3.9-.1 1.6 0 1.8 0 0 .1 1.7.5 1.8.3 0 .7-.5 1-1 .5-.7.9-1.4.9-1.4l.4 5c.2.6.9 2.1 1.5 2.2l2.5.5 2.1-.2c.8.1 1.5.2 1.8-.3.1-.2-.1-.7-.1-.7s.5.2.6.2c.6.2.4-.4.4-.4l-4.2-5.1c-.3-.4-.4-.9-.4-1.4l-.9-8.3 2.3-11.3 3.4-5.9c0-.2.6-.7 1.3-1.3-.2.9-.7 3.1-.6 3.8.2 1.5 2.1 4 2.7 5.3.9 1.8 2.8 11.5 2.9 11.7l.8 5.8c.1.4.5.6.8.5.4-.2.9-.3 1.2-.2.7.2 1 1.6 1.5 2 .8.8 4.1 1.8 5.1 2.1.2.1.5.1.7 0l.7-.2c.1 0 .1-.3 0-.3-.1-.1.1-.3.2-.2l.5.3h.1l.3-.1c.3-.1.4-.4.2-.6L33 88.3l-3.7-3c-.4-.3-.6-.7-.8-1.2l-2.4-12.8c-.1-.1-.1-.3-.2-.5l-.7-6.4 1.3.1h.6c.1 0 .3.1.3.2l.7 1.6c0 .1.2.1.2 0l.6-1.1c0-.1.1-.1.2 0l1 2.3c.1.2.4.2.5 0l1-3.6 1.6-.5 2.4-1.8 3.3-3.3 3.2-.7c.8.7 1.6 1.3 2.4 1.5 4.7 1.7 12.3 1.2 12.5 1.2 6.8-.3 10.4-2.8 14.5-3 .2 0 1.2.2 1.3.2l.1 9.2.8 5v10.1s-.8 7-.3 7.3c.7.3 1.6-1.1 1.6-1.1l.4 1.2.6.1.5 1.3.4 1.4c.1.2.3.4.5.4h4.3c.3 0 .5-.3.4-.6l-.4-.5c.3-.2.9-1.1.9-1.1s.9 3.9 2 4.5c.8.5 6.4.7 6.4.7l-.4-.9 1.6-.4s-4.8-3.3-5.6-4.9C85 86.2 85.3 72 85.3 72l1.4-1.6.7-5.8 1.7-5.4v-.1c.3.1.4.1.4.1.3 0 2.9-.5 3.1-.7 1.5-.7 1.3 0 7.7-11.1 1-1.7 1.3-4.7 2.1-6.1 3-5.1 7.4-10.2 9.4-13 1.1-1.6 3-2.5 4.9-2.5h10.7l6.9 1.2h.1c.9.1 1.8-.4 2.2-1.2.1-.1.1-.3.2-.5l.5-3.2c-.1-.4-.2-.9-.5-1.3zM81 81.9l-.7 7.6-3.4-5.2.5-10.1 2.8-13.8.7-.3-.5 12.4.6 9.4zm42.8-76.7c-.5-.6-1.1-1.2-1.5-1.7.6-.1 1.2-.1 1.6-.1 1.6 0 3.3.5 4.3.8-1 0-3.6.7-4.4 1z"/><path fill="none" d="M136.8 20.8l-1.8-1c-.1 0-.1-.1-.2-.1-1.9-1.9-6.9-5.4-7.6-10.8.8-.1 2.5-.4 3-.7 1.1-.6 2.4-2.7 2.4-2.7s-1.7-1.5-4-1.5c-.4-.7-1.7-2.3-4.4-2.9-1.2-.3-4.7-.3-5.2-.3-.5-.3-1-.6-1.2-.6 0 0-.2.3-.4.3-.1 0-.2-.3-.3-.2-.1.1 0 .3-.1.3-.2.1-.5-.5-.6-.4-.2.1-.2.8-.2.8-.1 0-.5-.6-.8-.7-.2-.1-.4.5-.6.4-.4-.1-.7-.2-.7-.2s.1.8-.1.8c-.1 0-.4-.8-.6-.8-.1 0 .2 1 .1 1.1-.1 0-.7-.9-.8-.8-.2.2.4.6.2.8 0 0-.8-.5-.9-.5-.2.2.4.9.4.9s-1.2-1.1-3.1.2c-1.4 1-.6 2.4-.6 2.4L104 7.8c-.5.3-1 .6-1.6.8l-11.5 4.2c-2 .9-2.4.8-4.5.8l-7.9-.9c-.6 0-1.1-.1-1.7 0 0 0-11.4 2-28.3 2-4.5 0-10.3-.5-13.8-1.1-2.1-.4-5.3.2-9.2.3-6.3.2-13.6.1-13.6.1-1.4.1-3.7 1.8-4.1 2.2L5.4 19l-2.1 4.3c-.2.2-.7 2.7-.9 5.7-.2 2.8 0 6 0 6.5.6 7.4.7 13 .7 13 0 .1.3 5.7-.3 8.4-1.7 7-2.2 6.3-2.4 8.6-.5 5.6.7 4.3.9 4.8l1.2 4.5c.5 1.5 2.1-3.3 2.5-5l.6-10.7c0-.2-.4-23.6-.4-23.8 0 0 .7-8.7 1.1-8 .1.2.4 3.8 1.1 7 .6 2.3 1.6 4 2.1 6.3.5 2.5.6 4.7.8 5.4l1 3.7c.1.4-.2 1.2-.4 1.5l-1.3 5.4-.8 1.9V60l-.9 1-.8 1.7c-.1.2-.1.4-.1.6 0 0-.6 3.7-.3 4.9.5 2.1-.2 7.1-.2 7.1s-.7 9.5-1.4 11.5c-.3.9-.1 1.6 0 1.8 0 0 .1 1.7.5 1.8.3 0 .7-.5 1-1 .5-.7.9-1.4.9-1.4l.4 5c.2.6.9 2.1 1.5 2.2l2.5.5 2.1-.2c.8.1 1.5.2 1.8-.3.1-.2-.1-.7-.1-.7s.5.2.6.2c.6.2.4-.4.4-.4l-4.2-5.1c-.3-.4-.4-.9-.4-1.4l-.9-8.3 2.3-11.3 3.4-5.9c0-.2.6-.7 1.3-1.3-.2.9-.7 3.1-.6 3.8.2 1.5 2.1 4 2.7 5.3.9 1.8 2.8 11.5 2.9 11.7l.8 5.8c.1.4.5.6.8.5.4-.2.9-.3 1.2-.2.7.2 1 1.6 1.5 2 .8.8 4.1 1.8 5.1 2.1.2.1.5.1.7 0l.7-.2c.1 0 .1-.3 0-.3-.1-.1.1-.3.2-.2l.5.3h.1l.3-.1c.3-.1.4-.4.2-.6L33 88.3l-3.7-3c-.4-.3-.6-.7-.8-1.2l-2.4-12.8c-.1-.1-.1-.3-.2-.5l-.7-6.4 1.3.1h.6c.1 0 .3.1.3.2l.7 1.6c0 .1.2.1.2 0l.6-1.1c0-.1.1-.1.2 0l1 2.3c.1.2.4.2.5 0l1-3.6 1.6-.5 2.4-1.8 3.3-3.3 3.2-.7c.8.7 1.6 1.3 2.4 1.5 4.7 1.7 12.3 1.2 12.5 1.2 6.8-.3 10.4-2.8 14.5-3 .2 0 1.2.2 1.3.2l.1 9.2.8 5v10.1s-.8 7-.3 7.3c.7.3 1.6-1.1 1.6-1.1l.4 1.2.6.1.5 1.3.4 1.4c.1.2.3.4.5.4h4.3c.3 0 .5-.3.4-.6l-.4-.5c.3-.2.9-1.1.9-1.1s.9 3.9 2 4.5c.8.5 6.4.7 6.4.7l-.4-.9 1.6-.4s-4.8-3.3-5.6-4.9C85 86.2 85.3 72 85.3 72l1.4-1.6.7-5.8 1.7-5.4v-.1c.3.1.4.1.4.1.3 0 2.9-.5 3.1-.7 1.5-.7 1.3 0 7.7-11.1 1-1.7 1.3-4.7 2.1-6.1 3-5.1 7.4-10.2 9.4-13 1.1-1.6 3-2.5 4.9-2.5h10.7l6.9 1.2h.1c.9.1 1.8-.4 2.2-1.2.1-.1.1-.3.2-.5l.5-3.2c-.1-.4-.2-.9-.5-1.3zM81 81.9l-.7 7.6-3.4-5.2.5-10.1 2.8-13.8.7-.3-.5 12.4.6 9.4zm42.8-76.7c-.5-.6-1.1-1.2-1.5-1.7.6-.1 1.2-.1 1.6-.1 1.6 0 3.3.5 4.3.8-1 0-3.6.7-4.4 1z"/><g fill="#202020"><path d="M123.8 5c0 .1 0 .1 0 0zm.1.1v-.2.2s-.1 0 0 0c-.1 0-.1-.1 0 0-.1 0 0 0 0 0zm1.8-.4zm1.1-.2zm.2 0zm-1.3.2zm-1.6.2zm1.1 0V5m-.3 0s-.1 0 0 0c-.1 0-.1 0 0 0-.1 0-.1 0 0 0zm-.7.1zm1.3-.2zm-1.8-.2zm3.6-.2zm-1.4-1.2c0 .1-.1.1 0 .1 0 0 .1-.1 0-.1zm-1.8 1.6zm4-.5c0-.1 0-.1 0 0 0-.1 0-.1 0 0zm-.6 0zm.5-.5c-.1 0 0 0 0 0zm-.4-.1h.1m-4.7.1c0 .1 0 .1 0 0 0 .1.1.1 0 0zm1.1 1zm3.7-.6zm-4.1-.8zm3.9.7zM123 4z"/><path d="M123.3 4.1s-.1 0-.1.1c0 0 0-.1.1-.1-.1-.1-.2 0-.2-.1-.1 0-.1-.1-.2-.1l-.1.1s-.1 0 0 0c0-.1 0 0 .1 0 0 0-.1 0-.1-.1h.1V4l.1-.1c0-.1-.1 0-.1-.1l-.1.1c-.1 0 .1-.1 0-.1h-.1.1s-.1-.1-.2-.1h.1c-.1-.1.1 0 .1 0l-.1-.1-.1-.1h.1c-.1 0 0-.1 0 0 0 0 0-.1.1-.1h.3c0-.1.1 0 .1-.1l.1.1s0-.1.1-.1v.1-.1.1s.1 0 .1.1l.1-.1c.1-.1 0 .1.1 0h.4v-.1.2s.1.1.1 0h.2c0-.1 0 0 .1-.1.1 0 .1.1.2.1v-.1c0 .1.1.1 0 .1h.2v.1c.1-.1.2.2.3.1h.1v.1c.1-.1.2 0 .2 0 0 .2.2 0 .3.1v-.1c.2 0 .4.1.5.2.1 0 .1-.2.1-.1V4c.2 0 .3.1.4 0 0 .1.1 0 .1 0v.1h.3c0-.1.1.1.1 0 0 .1.1.1.1.1v.1h.1c0 .1.1.1.1 0l.1-.5c-.1.1-.2.1-.3.2 0-.1.1 0 .1-.1-.1.1-.1.1-.2.1v-.1c-.1.1-.2 0-.3.1v.2c0-.1-.1 0-.1-.2-.1 0 0 .1-.1.1V4s0 .1-.1.1-.1.1-.2.1c0-.1 0 0-.1-.1l-.1.1h-.1v.1h-.1s0 .1-.1 0v-.1c0 .1-.1 0-.1.1v-.1.1c-.1 0 0 .1 0 .1-.1 0-.1.1-.2.1v-.1c-.1 0-.2.1-.2.1 0 .1-.1 0-.1 0s0-.1 0 0c-.1 0-.1.1-.2.1h-.1v.1c-.2-.1-.2.1-.3 0h-.1v.1c-.1-.1 0 .1-.1.1 0 0 0 .1-.1.1v-.1s0 .1-.1.1c-.1-.1-.1 0-.1 0h-.1c0 .1-.1 0-.1.2v-.1c0 .1-.1 0-.1.1v.1c0 .1-.2 0-.2.1-.1.1-.1.1-.1.2v-.1h-.1s0 .1-.1.1v-.1l-.1.1v-.1h.1c.1.1.1 0 .1 0v.1-.1.1h.1s0 .1 0 0c.1 0 .1-.1.1 0 .1 0 0-.1 0-.1l.1.1v-.2c.1 0 .1-.1.1 0v-.1c0 .1 0 0 .1 0v.1c0-.1.1 0 .1 0 0-.1.1 0 .1-.1h.2c0-.1 0-.1.1-.1v.1l.1-.1c0-.1-.1-.1 0-.2v.3h.1v-.1l.1.1v-.1s.1 0 .1-.1c.1-.1.2 0 .2-.1 0 0 .1 0 .1-.1V5h.2c0 .1 0 .1.1 0h.1v.1c.1.1.1-.2.2-.1 0-.1-.1 0 0-.1l.1.1c.1 0 0-.1.1-.1v-.1l.1.1h.2c.1 0 0-.1.1-.1 0 0 0 .1.1 0v.1c0-.1.1 0 .1 0v-.1h.1c-.1 0 0 .1 0 .1.1 0 0-.1.1-.1h.1l.1-.1c0-.1.1 0 .1 0v.1c0-.1.1 0 .1 0v-.1h-.1v-.1h-.1v-.1c0 .1.1-.1.1 0v.1c.1 0 .1-.1.2-.1h.1v.1s.1 0 .1-.1l.2.2-.2-.6c-.1 0-.1.1-.2 0 0 0 0-.1.1-.1h-.1s0 .1-.1 0v.1c0-.1-.2 0-.2-.2h-.2c0-.1-.1.1-.1 0v-.1c0-.1-.1 0-.1-.1s-.1 0-.1 0c-.1.1-.1.1-.2.1v-.1s0 .1-.1.1v-.1c0-.1-.1 0-.1 0-.1 0-.1.1-.2 0-.1.1 0-.1-.1 0v-.1s-.1.1-.2.1c0-.1.1-.1.1-.1h-.1c0 .1-.1.1-.1.1 0-.1-.1-.1-.1-.2-.1 0-.2-.1-.3-.1v.1l-.1-.1c-.1 0 0-.1 0-.1s0 .1-.1 0v.1c-.1 0-.1-.1-.1-.1s-.2 0-.2.1v-.1c-.1 0-.2.1-.3 0 0 0 0 .1-.1 0h-.1c-.1-.1-.2.1-.2.1 0-.1-.1-.1-.1-.1-.1 0-.2.1-.3.1-.1-.1-.2-.1-.3-.1v.1s-.1.1-.1 0c.8-.4.8-.4.7-.4v.1c-.1-.2-.3.1-.3-.1 0 0-.1 0-.1.1V3h-.2l-.1.2v-.1c-.1 0-.2-.1-.3 0h-.1c-.1 0-.1 0-.1.1 0-.1-.2 0-.2 0v-.1c0 .1 0 .1-.1.1 0 0-.1 0 0 0-.1 0 0 .1-.1 0-.1 0 0 0 0 .1h-.2s.1.1 0 .1h-.2c-.1 0-.2 0-.3-.1-.1 0 .2.2.2.2-.1 0 0 .1 0 .1h.1l-.1-.1c.1 0 .1.1.1.1.1 0 .1 0 .2.1-.1 0-.1.1-.1.1.1.1.2.2.3.2v.1h-.1c.1 0 .1.1.2.1 0 .1-.1 0 0 .1 0 .2.3 0 .3.3.1.2.3.2.3.4 0 .1.1 0 .1 0h.1c.1 0 0 .2.1.2 0 0 .1.1 0 .1h.1c0 .1-.1.1 0 .2h.1v-.1c.1-.1.2-.1.2-.2h-.2v-.1h-.1s.1 0 .1-.1c0 0 0 .1-.1.1V5h-.1c0-.1-.1-.1 0-.1h-.1c.1 0-.1-.1 0-.1-.1 0-.1-.1-.2-.1v-.1h-.2c0-.1.1 0 .1-.1h-.1v-.1c-.1.1 0 0-.1 0 .6-.2.6-.2.6-.3zm-.7-.5zm0 0c0-.1 0 0 0 0s-.1-.1 0 0c-.1-.1-.1-.1 0 0zm-.6-.1z"/><path d="M122.2 3.5v.1-.1h-.1m3 1.2zm-.2 0zm-.2.1zm2.7-.8zm-.8.3zm.1 0s-.1 0 0 0zm-2.7.6h-.1m0 0c0 .1 0 0 0 0zm0 .1zm.3-.1zm.1 0c-.1 0-.1-.1 0 0-.1-.1-.1 0 0 0zm.3.1c0 .1 0 .1 0 0 0 .1-.1 0 0 0zm.2 0zm1.3-.3zm.2-.3l-.1-.1v.1m1.5-.6s0-.1 0 0zm-.9-.2c0-.1-.1-.1 0 0-.1-.1-.1 0 0 0zm-2.9-.6"/></g><g fill="#202020"><path d="M80.9 81.9v-.1.1zm.1-.6c0-.1-.1-.2-.2-.1.1.1.1.1.2.1 0 .2 0 .2-.1.2v.2c.1-.1.1-.2.1-.4-.1 0 0 0 0 0zm-.3-8.6c0 .1 0 .1 0 0zm.2-5.3c0 .1 0 .1 0 0 0 .1 0 0 0 0zm.1-.9s0 .1 0 0c0 .1 0 0 0 0zm-.3 6.2v-.1.1zm.1 7.4c0 .1 0 .1 0 0zm0-5h.1m0 1.8c0-.1 0-.1 0 0 0-.1 0 0 0 0zm.1 2.8c0 .1 0 0 0 0zm-.2-5.9zm-.2 10.1zm.4-2s.1 0 0 0zm.2-17zm-3.1 5.2c.1-.2 0 .3.1 0 0 .1 0-.2-.1 0zm2.7 10c0-.1 0 0 0 0zm-2.6-10zm3.1-9.1c0 .1 0 .1 0 0 0 .1 0 .1 0 0zm-.2 2.9zm-.8-3.6h-.1c0 .1.1.1.1 0zm-.4 1.6v-.1m.3 26.8s0-.3 0 0zm.6-8.5zm-.2-19.4zm-3.2 19.7c0 .1 0 .1 0 0zm3-18.9s0 .1-.1.1l.1-.1zm-.2 27z"/><path d="M80.2 86.9c0 .2.1.1.1.2 0 .3-.1.1-.1.2 0 .2.1.3 0 .4v.8h.1v.2c-.1 0 0-.1-.1-.1s0 0-.1-.1v.1c0 .1 0 .2.1.3l-.1-.2v-.1s-.1.1-.2-.2h.1c-.2-.3-.2-.1-.3-.4.1 0 .2.2.1.2-.1-.2-.1-.1-.2-.2v-.1c-.2-.3-.4-.6-.7-.9h.1c-.3-.4-.6-.9-.8-1.3H78s0-.1 0 0c-.1-.2 0 0-.1 0-.1-.1 0-.1 0-.1-.2-.2-.6-.7-.7-1h.1c-.1-.1-.1-.2-.2-.2v-.2c.1-.6 0-1.2.1-1.6-.1-.1.1-.6 0-.6.1-.3.1-.2.2-.7 0-.1-.1-.2-.1-.3h.1l-.1-.2.1-.1v-.1c0 .1 0 .1-.1.1 0-.2.1-.5.1-.5v-.5.2c0-.3.1 0 0-.3 0-.1.1-.4.1-.6v-1.2c0 .2-.1.1-.1 0h.1c0-.1 0 .1-.1 0 0-.2.1-.1.1 0v-.2h.1c0-.1.1-.3 0-.5v-1c-.1 0 0-.1-.1-.3 0-.3.1-.5.1-.9 0-.2 0-.1-.1-.2.1 0 .1-.3.1-.2v-.1c0-.3.1-.4.1-.8l-.1.1c0-.1.1-.2.1-.2 0-.5.4-1.2.4-1.6v-.4c0-.2 0 .1.1 0 0-.5.2-.7.2-1.1.2-.3.2-1.1.4-1.4 0-.1 0-.1.1-.2 0 0-.1.1-.1 0 .1-.9.4-1.8.6-2.7.1-.3-.1-.2 0-.6v.1c.1-.7.3-1.4.4-2v.1c.1-.1.1-.5.1-.5 0-.1 0 0 .1-.1s0-.4.1-.4v.1c0-.1.1-.4 0-.3.1-.2.1-.5.1-.7 0-.1.1-.4 0-.5 0 0 .1-.1.1-.2v-.3s.1 0 .1-.1v-.1h.1v1.6c-.1 0 0-.5-.1-.5 0 .5.1.7 0 1.2 0 .1 0-.1-.1-.1v1.4-.1c.1-.1.1.3.1.3-.1-.1 0 .4-.2.2 0 .1 0 .1.1.1 0 .1 0 .1-.1 0 0 .3.1.2 0 .4V65c0 .1.1.3 0 .5v-.1c0 .4.1.6 0 1.1-.1-.1 0 .1-.1.2v.2-.1.5-.1.4-.2c0 .2.1 0 .1.2 0-.1 0 .2-.1.3v.3H80c.1.1 0 .5.1.6H80v.1c0 .1 0 .1-.1.1 0 .3.1-.1 0 .2v-.1.9c-.1.1 0-.3-.1-.2 0 .4.1.9 0 1.3V71c.1.1-.1.3 0 .5 0-.1-.1-.1 0-.1v1-.1.6c0 .1 0 .2.1.1-.1.6.1 1.1 0 1.6v-.1.4s0-.1.1-.1c0 .1.1.2.1.3 0-.2-.1 0-.1.1-.1.2.1 0 .1.3 0 .1.1.2.1.3-.1.1 0-.1-.1-.1 0 .2.1.3.1.5V76c-.1.2 0 .2 0 .3v.3-.1c.1.2 0 .4.2.7-.1-.3-.1 0-.1-.1v.2c.1.1 0 .2.1.4v.1c0 .2 0 0 .1 0 .1.3 0 .6.1 1 .1.3.1.4.2.7 0 .1-.1-.1-.1-.1v.5l-.1.1c0 .1.1.1.1.3l-.1-.1c0 .1.1.3.1.5l-.1-.1c0 .2.1.5.1.5V81c0 .1 0 0-.1 0v-.2.1c.1-.1 0-.4 0-.7l.1.1.2-.3c0-.1.1-.1.1 0v-.5s.1 0 .1.1c0-.3-.1-.5 0-.6 0-.4-.1 0-.1-.3l.1-.2H81v-.1c0-.1 0 0-.1-.1 0-.2-.1-.5 0-.6 0-.1 0 .2-.1 0 .1-.1 0-.2 0-.4.1.1 0 .2.1 0-.1-.1 0-.3 0-.5-.1 0 0-.3-.1-.6v-.7c-.1 0-.1-.3-.1-.5 0 0 .1 0 .1.1v-.2s0-.1-.1-.2h.1c0-.2-.1-.4-.1-.7-.1 0-.1.2-.2-.1 0 0 .1 0 .1.1v-.1l.1.1v-.2s0-.1.1-.1v-.2s-.1 0-.1-.1c0-.2 0-.1.1-.2 0-.1 0-.2-.1-.2v-.1c0-.1 0-.5-.1-.4v-.2c0-.3.1-.7.1-1v-.7c0-.1 0-.2.1-.1v-.4.2c0-.2.1-.3 0-.5 0 .1.1-.2.1-.3v-.1l.1.1c.1-.4-.1-.8 0-1.2 0-.1 0 .2-.1.1 0-.2.1-.4.1-.5 0-.3-.1-.3 0-.6 0 0-.1.1-.1-.2 0-.2.1-.2.1-.1v.2c0-.1 0-.4.1-.3 0-.2 0-.1-.1 0 0-.3 0-.4.1-.7 0 0 0 .1 0 0v-.4c-.1.2-.1.4-.1.2s.1 0 .1 0c0-.3 0-.5.1-.6v-.1l-.1.1v-.1c0-.1-.1.1-.1-.1 0-.1 0-.3.1-.3 0 .3.1 0 .1.2v-.2c.1-.3-.1-.1-.1-.5l.1-.1c0 .1-.1.1-.1-.1v-.5.1c-.1-.2.1-.4 0-.6 0-.1.1 0 .1-.1 0-.3.1-.3 0-.5-.1.1 0 .1-.1-.1v.4l-.1-.3v.4c0-.1 0-.1-.1-.1.1-.2 0-.4 0-.6h.1c.1-.3 0-.5 0-.9v-.3l.1-.1s0-.3-.1-.3l.1-.3v-.5c-.2.1-.3.2-.5.2.1-.1-.1 0 .2-.2-.2.1-.3.1-.3.1l-.2.1c-.1 0-.2.1-.3.1v.3s0 .2.1.1c-.2.3-.2.9-.3 1.1 0 .2-.1.5-.1.7-.1.3.1.2 0 .5-.1.1 0-.2 0-.1-.1 0-.1.4-.2.6v-.1c-.1.2 0 .4-.1.7 0 .2 0 .5-.1.8 0-.1 0-.1-.1-.1 0 .1.1 0 .1.2 0 .1-.1.2-.2.2v-.2c-.1.1-.1.3-.1.4-.1.3 0 .4-.1.7 0 .2-.1.2-.1.4h-.1c0 .1 0 .5-.1.7v-.6c0 .1-.1.4-.1.5v-.2.6c-.1-.1-.2.7-.3.8 0 .5-.2.9-.3 1.4.2-.2 0 .2.1.1v.2l-.1.4c-.1.1 0-.1 0-.1-.1.3-.1.1-.1.3.1 0 0 .1 0 .3l.1-.2c0 .4-.2.3-.2.7v-.1c0 .2-.1.7-.1.9 0 0-.1.1-.1 0-.1.5-.1 1-.2 1.4v.6-.1c0 .1 0 .1-.1.2 0 .4.1.6.1.9-.1 0-.1.4-.2.5V77c-.1.3-.1 1-.2 1.5 0-.1.1 0 .1.1v.3c-.1.1-.1.3-.1.5h.1c-.2.5 0 1.3-.2 1.5v.4h-.1c0 .3 0 .5-.1.9v-.1c0 .2.1.3.1.5l-.1.1c0 .4-.1.8-.1 1.2v-.1.7c.1.1.2.2.2.1-.1 0 .2.3.4.5H77c.2.1.2.1.3.3 0 .1 0 .1 0 0 .1.2.1.1.2.3l-.1-.1c.1.2.1.1.2.2s.2.3.2.4l.2.2h-.1c.2.3.3.4.4.6v.1c-.1-.2-.3-.4-.2-.4 0 0 .1.2-.1.1.1.1.4.3.5.5l.1.1c0 .1 0 .1.1.2 0 0 .1.2.2.3 0 0 .1.1.1-.1l-.1-.1c0-.1-.1-.1-.2-.2l.2.2c.1 0 .1.1.2.1 0 .2.1.4.1.5.1.1.2.3.3.4.1.1.1.2.2.2l.2.2c.1.1.1.2.1.2l-.1-.1c.2.3.4.4.4.3.1-.1 0 .2.1-.1v.1s.1-.1.1-.2c.1-.9-.1-1.1.1-1.7v.1c.1-.8.1-1.7.3-2.5v-.4h.1v-.2c0-.3.2-.6.1-1v.1c0-.2 0-.5.1-.5v-.5c0-.3.1.1.2-.4 0-.2-.1-.5-.1-.4 0 .1 0 .2-.1.2V82c-.1 0-.2-.2-.3.2v.3l-.1.1v-.2c-.1.1 0 .2 0 .3 0 0 0 .1-.1.1l.1.3s-.1-.1-.1 0 .1-.1.1.1c-.1.1-.1.1-.1.2v-.1.4c-.1.1 0 .4-.1.4v.3c-.1-.2 0 .4-.2.4.1.2 0 .6 0 .8v-.1c0 .2-.1.2-.1.3.1 0 .1.3.1.4-.1.2-.1-.1-.2-.1.1 0 0 .3.1.3-.1.1 0 .1-.1.2.1 0 0 .1.1.3-.1.2-.1 0-.1.3.1-.1 0-.3 0-.3zm-1.3.2s0 .1 0 0c0 .1 0 0 0 0zm-.3-.4s.1.1.1.2h-.1c.1 0 .1-.1 0-.2zm.2 1c.1 0 0 0 0 0zm.2.1zm1.6-15zm0 2.5c0 .1 0 0 0 0zm0 1.1zm0 .9s.1 0 0 0zm.1-13.4c0-.1 0 0 0 0z"/><path d="M80.7 67.9v-.1c-.1 0-.1.1 0 .1zm0-.3zm.1 13.3zm0 .2c0-.1 0-.1 0 0zm0-1.3c-.1 0 0 0 0 0zm-.1-.4v.3s.1-.2 0-.3zm.2-1.4v.3c0-.1 0-.1.1 0 0-.3-.1.1-.1-.3zm0-.9c0 .2 0 0 0 0s0-.1 0 0zm-.1-6.3c0-.1 0 .1 0 0zm-.3-1.2v.1l.1.1m.3-.9v.1-.2m-1-7.2c.1-.1 0-.1 0 0zm-.9 4.5l-.1.2c.1 0 .1-.1.1-.2zm-2.1 13.6v-.1.2"/></g><g fill="#202020"><path d="M136.9 20.8c-.1-.2-.2-.2 0 0 0 .1.2.3.3.8 0 0 .1.2.1.4v.1c0-.2 0-.4-.1-.6 0-.4-.3-.7-.3-.7zm-1.5 6.2c-.5.3-1.2.3-1.6.2-.4 0-.5 0-.2.1.6.1 1 .1 1.4 0 .4-.1.8-.3 1.2-.8.4-.4.5-.8.5-1.1.1-.3.1-.4.1-.3 0-.4.3-1.5.3-2.1-.1.6-.3 1.4-.4 2.1 0 .2-.1.4-.1.6-.1.2-.1.4-.3.6-.2.3-.6.5-.9.7-.4.1-.1 0 0 0zM87.9 91.2l-.5-.4c.2 0 .4.2.5.4zM73.1 61.8zM67 58c.2-.1.4-.1.6-.2-.2 0-.4.1-.6.2zm20.9 33.2s.3.3.6.5c.3.3.6.5.6.5.2.1-.6-.5-1.2-1zM122 26.1h.9-.9zM86.8 65.6l.1-.5v-.4l-.1.9zm11.4-15.1c-.2.4-.3.6-.3.7.1-.2.3-.5.5-.9-.1 0-.1 0-.2.2zm19.2-24.6h.6-.6zM84.9 79.8zm46.8-75.2c.1.1.1.1 0 0zm5.1 16.3l-.3-.2h-.1l.4.2zM48.4 59.7s.1 0 0 0c.6 0 .3 0 0 0zm-41.8 17c-.2 2 .2-3.2-.1-.3.1-.2-.1 2.7.1.3zm114.9-50.6h-.8.8zM6.5 76.4zm20.2-.4c0-.1 0-.3-.1-.4 0 0 0 .1.1.4zm11.4-17l-.6.6.6-.6zm-3.8 31.3c.3.3.4.4.8.9l-.1-.1c-.1-.3-.3-.5-.7-.8zm-10.5-4.6v.3c0 .2.1.4.1.6l-.1-.9zm66.9-72.8c.3-.1.6-.2.8-.3-.3.1 2.1-.9-.8.3zM122 26.1h-.5.5c.1 0 .1 0 0 0z"/><path d="M35.1 90.5l.2.2.1.1c.1.1.1.2.1.2.1.4-.1.8-.5.8h-.5l-.4-.2-.1-.1h-.1v-.1h.1c.3 0 .5.3.4.5.1-.2-.1-.5-.4-.5l.2.2c-.1 0 0 0 0 0v.1l.1.1c.1.1.2.1.3.2h.4l.2-.1c.3 0 .6-.4.5-.8 0-.2-.2-.4-.2-.4l-.4-.2zM2.5 57.1s0-.2.1-.3c0-.2.1-.3.1-.3-.1.2-.2.5-.2.6zm24.1 32.2c-.2-.4-.5-.9-.8-1h-.3.2c.1 0 .2.1.4.2.3.3.5.8.5.8zm64.9-76.7z"/><path d="M108.1 5c-2.2 1.5-1 .8-1.4 1.1-2.6 1.8-1.2.8-2.2 1.4-.8.6-1.6.9-2.3 1.2-.8.3-1.5.6-2.2.8-.1 0-.4.1-.1 0-2 .8-5.9 2.1-8.1 3-.2.1-.3.1-.3.1.4-.1.5-.1.4 0-.6.2-1.1.5-1.5.6-.4.2-.8.3-1 .3.7-.2.7-.2 1.1-.4l-1.2.4c-.6 0-.1 0 .4-.1.3-.1.6-.2.8-.3l.4-.2c-.6.2-1.1.5-1.7.6-.6.1-1.3.1-1.9.1-1.2 0-2.4-.2-3.3-.3-.4-.1 4.4.5 1.9.1 0 0 .2 0 .4.1.1 0 .3 0 .5.1h1.9-.2c.5 0 .9-.1-.1-.1h-1.3c-.3 0-.7-.1-1-.1-.6-.1-1.2-.1-1.7-.2-1.1-.1-2.1-.2-4-.5-.9-.1.3.1-.6 0-.3 0-.6-.1-.9-.1h-1.5c-.2 0-.4.1-.6.1-.7.1-1.2.1-1.6.2-.9.1-1.6.1-3.5.4-1 .2-1.4.3-4.2.5l1-.2c-3.7.3-2.1.3-5.9.5.7-.1 2.9-.2 2.3-.2-2.5.1-1.8.2-3.7.3h-.4c-3.9.2-8.2.4-12.6.4.2 0 1 0 0-.1-2.7 0-5.7-.2-8.5-.5-1.4-.2-2.9-.4-4.2-.6-1.4-.3-2.9-.1-4.2-.1l-2 .2h-.4c-2.1.1-.1 0-1.1.1-1.2.1-1.5 0-.8 0-3.6.2-10.4.3-14.2.3h.7-1c-.3 0-.6 0-.9.1-.5.1-.9.3-1.3.5s-.7.4-1.1.7c-.4.3-.9.5-1.4 1.1l.4-.4c-1 1-1.9 2-2.8 3.1-.7 1.4-1.4 2.9-2.1 4.3-.2.3-.2.5-.2.7l-.1.7c-.1.4-.2.9-.2 1.3-.1.9-.2 1.7-.3 2.5-.4 1.5-.4 3-.5 4.4.1.9.3 6.4.4 6.8.1 3.7.1 2.6.3 7.8.1 1.4.3 2.1.3 3.8h-.1v2.4s0 .3-.1.6c0 .3-.1.6-.1.6s0 .4-.1.8c0 .4-.1.8-.1.8.1-.6.2-1.3.2-1.2.1 1.2-.4 2.7-.7 3.9-.2.6-.3 1.1-.4 1.5-.1.4-.2.6-.2.6s-.1.4-.3.9c-.2.5-.4 1.2-.7 1.9-.2.8-.2 1.5-.3 2.1v.9c0-.1 0-1.1.1-1.9C.1 66.8.1 66.9 0 67c0 .1-.1.2 0 1.7 0-.4.1.2.1.3 0 .2 0 .4.1.7.1.2.2.6.6.7.1 0 .2.1.2.1 0 .1.1.2.1.4.1.3.2.6.2.9.2.6.3 1.3.5 2 .1.3.2.7.3 1 0 .1 0 .3.3.6.1.1.4.1.5.1.1-.1.2-.1.3-.2 0 0-.1.1-.3.2-.1.1-.3.1-.4 0-.1 0-.1-.1-.1-.1.1.1.3.2.5.1.1-.1.2-.1.3-.2.1-.1.2-.3.3-.4.2-.3.3-.5.4-.8.2-.5.4-1.1.6-1.6.2-.6.4-1.1.5-1.7.1-.3.2-.6.2-.9V69c.1-2.4.3-4.9.4-7.3-.1 1.8-.2 1.4-.1-.1l.1-.6c0-.9-.1 1.5-.1-.4.1-1.9.1-1.2.1-.2l.1-1.2v-1c0-.1 0 .4.1.5-.1-.9 0-3.9-.1-5.2v-.1c-.1-5.1-.1-7.4-.2-11.4-.1-.1-.1-1.7-.1-2.9v-3.5c0-.4.1-.8.1-1.2.2-1.6.3-3.3.6-5.1-.1-.4-.1-.7-.1-.8v-.4h.1c.1 0 0 .1.1.2v.5c.1.6.1 1.1 0 .2.3 2.1.5 3.5.8 5 .2.7.4 1.5.7 2.4.3.9.8 1.9 1.2 3.2-.2-.6-.4-1.2-.2-.9.4.9.6 2.1.5 2l-.1-.2c.3 1.3.5 2.7.7 4.1 0 .4.1.7.1 1.1 0 .4.2.8.2 1.1l.6 2.1.3 1.1c0 .2-.1.6-.2.9-.1.2-.1.3-.2.5l-.1.5c-.1.3-.2.7-.2 1-.3 1.3-.6 2.6-.9 3.8-.3.7-.6 1.3-.8 1.9v.1-.1l.1-.2-.1.2-.1 1.3-.9 1c-.3.7-.6 1.2-.8 1.9 0 .2-.1.3-.1.4-.1.7-.1.4 0 0 .1-.5.2-1 0 0-.2 1.4-.3 2.6-.4 3.7v.9c0 .3.1.6.1.8.1.5.1 1 .1 1.5 0 2-.2 3.9-.4 6.1-.1 1.3-.3 3.2-.6 5.5-.1 1.1-.3 2.3-.5 3.4-.1.6-.2 1.1-.4 1.7-.2.6-.1 1.3.1 1.8 0 .3 0 .7.1 1 .2.2.2.4.3.6 0 .1.2.5.5.5.2 0 .4-.1.5-.2l.3-.3c.2-.2.3-.4.4-.5.1-.2.2-.3.3-.5l.2-.2c0-.1.1-.1.1-.2v.2s0-.1 0 0c.1.7.1 1.5.2 2.2l.1 1.2v.8l.1.1.1.3c.2.4.3.7.6 1.1.1.2.2.3.4.5.1.1.2.2.3.2.1.1.3.1.3.1.8.2 1.6.3 2.4.5l1.2-.1h1.1c.4 0 .8.1 1.3 0 .2-.1.5-.2.6-.6 0-.4-.1-.5-.2-.7l-.3.3.6.2c.2.1.6.1.7-.2.1-.1 0-.3 0-.4 0-.1-.1-.2-.2-.2l-.4-.4L15 92l-1.4-1.7-.7-.9c-.3-.3-.4-.5-.5-.8 0-.1-.1-.3 0-.5v-.6l-.1-1.1-.3-2.1c-.1-1.4-.3-2.9-.4-4.3v-.3c.6-3.2.2-2 1.2-6.5l-.2 1.4c.4-2 .8-4.1 1.2-6.1 1.1-2 2.2-3.9 3.4-5.9l-.2-.1h.1v-.1s.1-.1.1-.2l.3-.3c.1 0 .1-.1.2-.1l-.1.3-.2 1.1c-.1.4-.1.7-.2 1.1-.1.4 0 .8.1 1.1.5 1.4 1.3 2.6 2 3.7-.2-.4-.3-.4-.7-1 .2.3.5.8.8 1.4.2.3.3.6.5.8l.3.9c.2.6.4 1.2.5 1.6.1.2.1.4.1.5 0 .1.1.2.1.2.3 1.1 0 .3.2 1 .4 1.6 1 3.9 1.1 4.8 0 .1-.1-.4-.2-.7.1.7.6 2.6.7 3.4.1.5.1.7.1.3.2 1.4.4 2.8.5 4 0 .3.1.6.1.9l.1.5c0 .2.1.4.3.5.2.1.4.2.6.2.1 0 .2 0 .3-.1l.2-.1c.3-.1.5-.2.7-.1.2 0 .6.4.8.8.1.2.3.5.4.7.1.3.4.5.6.7 1 .6 1.9.9 2.1.9-.1 0 .5.3 1.4.5.5.1.9.3 1.5.5h.5c.2 0 .3-.1.5-.1l.4-.1s.1 0 .2-.1.1-.2.1-.3c0-.2-.2-.4-.4-.4l.2.2v.1h.1l.2.1c.1 0 .2.1.4.1h.3c.5-.1.6-.6.4-.9.1.2.1.2 0 0s-.2-.3-.3-.4c-.2-.3-.5-.6-.2-.3-.7-.8-1.3-1.5-1.8-2-.6-.5-.8-.7-.7-.6l-2.1-1.8c-.3-.3-.7-.6-1-.9-.3-.3-.5-.6-.5-1-.3-1.7-.6-3.1-.7-4.2-.6-3-1.1-5.9-1.7-8.4-.2-1.2-.3-2.4-.5-3.6-.1-1.1-.2-2.1-.4-3.2.4 0 .8.1 1.1.1-.2 0-.6 0-1.1-.1.1.8.2 1.8.3 2.6.1.9.2 1.5.2 1.4-.2-1.5-.3-2.8-.5-4 .4 0 .7.1 1.1.1h.8s.1.2.1.3c.2.4.4.8.6 1.3.1.2.2.3.4.3s.2-.1.3-.3l.3-.6s0-.2.1-.1l.1.2c.1.3.2.5.3.8.1.3.3.6.4.8l.1.3c.1.1.1.2.2.2.2.1.5 0 .6-.3.1-.2.1-.3.1-.4v-.1s0 .1-.1.4c0 .2-.1.3-.3.4-.2.1-.4 0-.5-.1-.2-.4-.3-.5-.3-.6l.1.3c.1.1.1.3.2.4.2.2.7.1.7-.3.1-.4.2-.8.4-1.3.2-.7.4-1.5.6-2.2.5-.2 1-.3 1.5-.5.8-.6 1.7-1.3 2.5-1.9 1.1-1.1 2.2-2.2 3.2-3.3l.3-.1h-.1c-.1 0-.1 0-.2.1l-.4.4.4-.4c.4-.1.7-.2 1-.2.3-.1.4-.1.4-.1l-.9.2c-1 .2 1.2-.4 2.6-.7l.8.6c-.6-.4.2.3 1.2.8 1 .4 1.9.6.7.3.6.2 1.3.3 1.2.3.9.2 1.2.3.3.1 1.6.3 2.1.4 2.6.4s.9.1 2.4.2h-.9c1.5.1 3 .1 5.5 0h-.6c4.3-.1 7.3-.8 11.8-2.3-1.3.5 1.5-.4 1.8-.4 0 0 .6-.2 1.2-.3l1.2-.2h-.5c-.3 0-.5.1-.5.1.4-.1.9-.1 1.2-.1.2 0 .4.1.6.1l.3.1h.2v3.5V59l.1 4.2v-2.4c.1 2.2.1-.2.1 2.7v2.8c0 .2.1.4.1.6.2 1.1.4 2.2.7 3.8 0 .4-.1-.3-.1 0 0 .2.1.4.1.6 0 1.5 0 4.7.1 5.9 0-.5-.1-.5-.1-.3l.1.9c0 1 0 1.2-.1 1 0 3.1.1-1 0 2.7v-.7c0 .7-.1 1.4-.2 2-.1.7-.1 1.4-.2 2 0 .7-.1 1.3-.1 2v1.5c0 .1 0 .4.2.5.2.1.4.1.5 0 .1-.1.3-.2.4-.3.2-.3.4-.4.5-.6.1.1.1.3.2.4.1.2 0 .2 0 .1-.1-.1-.1-.3-.2-.4-.1.1-.1.2-.2.3-.1.2-.3.3-.4.4-.2.2-.3.2 0 0 .2-.1.3-.3.4-.4l.2-.2c0 .1.1.2.1.3.1.2.2.5.2.7.2 0 .4.1.6.1.2.4.3.8.5 1.2l.3 1 .1.5c.1.2.2.4.4.5.2.1.4 0 .6.1h4c.2 0 .4-.2.5-.4.1-.2 0-.4-.1-.5-.1-.2-.2-.2-.2-.3l.4-.4c.1-.1.2-.3.3-.4.1.2.1.4.2.8l-.2-.7c.1.1.3 1 .7 2.1.2.5.4 1.1.7 1.6.2.3.4.6.7.7.3.1.6.2.9.2-.3-.2-.5-.2-.4-.2 1 .2 2.1.3 3.2.4.6 0 1.1.1 1.7.1h1.1c-.1-.3-.3-.6-.4-.9.5-.1 1.1-.3 1.7-.4-.4-.3-.9-.6-1.4-1-.4-.3-.8-.6-1.3-1l.5.3c-.7-.6-1.7-1.4-2.6-2.2-.4-.5-.9-.9-1.1-1.5-.1-.3-.2-.6-.3-.8-.1-.3-.1-.5-.2-.8-.2-.6-.3-1.8-.2-1-.3-2.9-.4-5.6-.5-8.3 0-1.3-.1-2.7-.1-4v-1.5c0-.2 0-.3.1-.4.4-.5.9-1 1.3-1.5l.2-1.5c-.1.7-.2 1.6-.1 1.1l.5-4.8c0 .4 0 .7-.2 1.7 0-.4.1-1.3.2-2.2l.3-.9c-.6 2.1.1 0 .4-.9-.1.1 0-.2 0-.1.8-2.3.1-.5 1.1-3.6v.1-.1c.1 0 .2.1.4.1s.3 0 .5-.1l.9-.2c.6-.1 1.2-.2 1.8-.5.3-.1 0 .1-.4.2s-.9.2-.9.2c.9-.2 1.9-.5 2.6-1.2.6-.7 1.1-1.5 1.6-2.2-.4.7-1.1 1.7-1.7 2.3.7-.7 1-1.1 1.3-1.5.3-.4.5-.7.9-1.3l-.1.1s.4-.7.9-1.4c.4-.7.9-1.4.9-1.4l-.4.7c.6-1.1 1.2-2.1 1.9-3.3.3-.6.7-1.2 1.1-1.8.4-.6.7-1.3.9-2.1-.5 1.5-.6 1.6-.5 1.4.1-.2.3-.8.3-.6.3-.8.7-2 .6-1.7.2-.8.3-1.4.6-2.1.1-.3.2-.7.4-1.1.2-.4.4-.8.7-1.3.1-.1.9-1.4.7-1.1 1.1-1.7-.3.4-.2.2 1.6-2.7 4.3-5.9 7-9.4 1.2-1.5 1.7-2.6 2.6-3.2.9-.6 1.9-1.2 3.7-1.2 1.2 0-1 .1-1 .1 1-.1 1.8 0 2.6 0h2.6c-.4 0 0 0 .6.1 1.5 0 1-.1 2.9 0-.3 0-.8.1-1.5.1h3.9c.4 0 .9.1 1.3.1.5.1-1.1-.2-1.7-.1h.8c.3 0 .6.1.9.1.6.1 1.2.2 1.7.3 1.1.2 2.1.3 2.4.3l-1.3-.2c.7.1.4.1-.2 0-1.7-.2-2.5-.4-2.5-.5l1.3.2c-.3-.1-.8-.2-1.4-.3-.3 0-.6-.1-.9-.1h-5.3l1.1-.1-2.6.1c-.6 0-.9-.1.3-.1h-4c-.5 0-.9.1-.9.1.4-.1-.3-.1.8-.1-1.7 0-2.9.7-3.7 1.3-.8.7-1.2 1.4-1.6 1.9l.2-.2c-2.7 3.6-.2.4-2.2 3.1l-1.5 1.7-.2.4c-.3.4-.8 1.1-.8.9-1 1.4.2-.2-.4.6-.7.9-1.6 2.1-2.3 3.2-.7 1.1-1.3 2-1.5 2.2-.4.7 1.1-1.8-.1.2-.2.3-.5.9-.8 1.7-.2.8-.4 1.8-.8 2.8.1-.6.6-2.5.1-.5-.1.6-.4 1.6-.9 2.5-.5.9-1.1 1.9-1.5 2.6 0 .1-.5.9-1.1 2-.7 1.1-1.5 2.5-2.3 3.7 0 0-.1.2-.4.6-.3.4-.6 1-1.2 1.5-.3.2-.6.4-1 .6l-1.2.3c-.4.1-.8.2-1.2.2-.2 0-.4.1-.6.1h-.2c-.1 0-.2-.1-.4-.1-.1.2-.2.5-.2.7v-.1c-.1.5-.9 3.1-1.5 5 0-.1.1-.5.4-1.5l-.5 1.4v.4c0 .4-.1 1-.2 2.3v-.5c-.1 1.2-.2 2.3-.4 3.6-.2.3-.5.5-.7.8l-.4.4-.7.3-.1.1v2.6c.1.2.1-2.6.2.8 0 .1-.1.3-.1-.6v1.6l-.1-1.4c0 1.5 0 .8.1 2v-.8 3.5c0-.1.1 0 .1 1 .1 2.5 0 .9.1 2.3.1.6.2 2.2.3 2.2.1.7.1.9.1 1.2.1.6.3 2.2 1 3.2.8.9 1.4 1.4.9.9l-.2-.2s.1.1.2.1c.7.7 1.5 1.3 2.2 1.9l1.2.9 1.1.8-1.5.4.3.7c.2.2-.1.2-.3.2-.5 0-.9 0-1.4-.1-.9-.1-1.9-.1-2.8-.2-.5-.1-1.2-.1-1.7-.4-.4-.3-.7-.9-.9-1.5-.2-.5-.4-1.1-.6-1.6-.1-.3-.2-.5-.2-.8-.1-.3-.2-.6-.2-.8-.2.3-.3.5-.4.7-.1.2-.3.4-.5.5.1.3.3.5.3.6v.1c.1.2-.1.4-.2.4h-4.3 2-2.2c-.3 0-.4-.1-.4-.2s-.1-.3-.1-.5c-.1-.3-.2-.6-.3-1-.1-.4-.3-.8-.6-1.3h-.2.2l-.5-.1c0-.1-.1-.3-.2-.5-.1-.3-.2-.7-.3-1-.1.2-.2.3-.3.5-.1.2-.2.3-.3.4-.1.2-.3.3-.4.4.2-.1.3-.2.5-.4s.4-.5.6-.8c.1.1.1.4.2.5-.1-.2-.1-.4-.2-.5-.1.2-.3.4-.4.6-.2.2-.2.3-.3.4-.2.2-.4.4-.6.3-.1-.1-.1-.4-.1-.6v-.7l.1.6c0-2.5.3-4.8.4-7v-6.1c0-1.4 0 2.8-.1 1.6 0-2 .1-4.1.1-5.1 0-.3-.1-.4-.1-.5-.4-2.5-.5-2.9-.8-4.5v-1.8c0 .4-.1.8-.1-1.7 0-2.4.1-2.9.1-1.4v.8c0 .8 0 1.8.1.8v-6.1c-.2 0-.4 0-.5-.1l-.3-.1c-.2 0-.4-.1-.6-.1-.5 0-.9.1-1.3.1-.9.1-1.8.3-2.8.6.5-.1.9-.2.5-.1-4.4 1.3-1.9.7-4.9 1.5-1.7.4.6-.2-2.4.5-1.9.3-.4 0 .3-.1-2.8.6-5.3.5-6.9.5H56h-2.4l.9.1h-1.6c-.9 0 .7.1-1.1.1-1.2-.1-3.5-.3-3.9-.5 3.6.5-.4-.1 2.7.3-.6 0-1.3-.1-2.2-.3h.4c-1.7-.3-2.1-.4-2.5-.5-.2 0-.4-.1-.8-.2s-.9-.3-1.6-.8c.2.1 0 0-.2-.2-.1-.1-.3-.2-.4-.3-.2-.2-.4-.3-.5-.4h-.1.1c.3.2.4.4.5.5l.1.1s-.1 0-.2-.1-.2-.2-.5-.4c-.2.1-.5.1-.8.2-1.4.3-1.9.4-2.5.6l-.9.9.9-.9h.2c-.1 0-.1 0-.2.1-.4.4-1.1 1.2-2.2 2.3-.1.1 1-1.1.6-.7-.5.5-1.1 1.1-1.7 1.8l-2.4 1.8c-.3.1-.7.2-1 .3-.4.1-.5.1-.6.2-.1.1 0 .1-.1.1 0 .1-.1.2-.2.5l-.8 2.8-.1.1v-.1c0-.1-.1-.2-.1-.3-.2-.5-.5-1.1-.8-1.8.1.2.1.3.2.4 0 .1.1.1.1.2s.1.1 0 .1c0 0-.1-.1-.2-.3-.1-.1-.1-.4-.3-.5 0 0-.1-.1-.2-.1s-.1.1-.2.2c0 .1-.1.3-.2.5l.2-.5c-.4-.2-.4-.3-.3-.3.1 0 .2 0 .3.1.1.2.3.5.3.7l.5 1 .2.5c0 .1.1.2.2.1 0 0 .1 0 .1-.1v-.2l.2-.5s-.1.2-.1.5c-.1.2 0 .2-.1.3-.1.1-.2 0-.2-.1-.3-.7-.7-1.4-.7-1.4.2.3.3.7.5 1l.2.4c.1.1.2.1.2 0 .2-.6.3-1.2.5-1.6-.4 1.5-.3 1.3-.1.6-.1.3-.2.7-.3 1-.1.1-.3.1-.3 0l-.2-.5c-.2-.4-.3-.7-.5-1.1l-.1-.3c-.1-.1-.1-.2-.2-.3-.1-.1-.1-.2-.2-.2-.1.1-.1.1-.2.3-.1.2-.2.5-.3.7-.1.1-.1.2-.2.2s-.1-.1-.2-.2v-.1h.1c-.2-.4-.3-.7-.5-1.1-.1-.1-.1-.2-.2-.3-.1-.1-.3-.2-.5-.2h-.6c-.5 0-1.1-.1-1.6-.1.1 1.1.3 2.2.4 3.4.1 1.1.2 2.3.5 3.8 0 0-.1-.4-.1-.7 0-.4-.1-.7-.1-.7.1.3.1.9.2 1.6.2.9.4 1.9.5 2.7-.1-.1.1.8.2 1.4 0-.1.6 3.3.8 3.7l.3 2c.2.9.3 1.6.4 2.2.1.3.1.6.2.9.1.3.2.5.4.7.4.4.8.7 1.3 1.1.5.4 1 .8 1.7 1.4-.9-.6.4.4-1.5-1.1.5.4.9.7 1.2 1 .3.3.5.4.6.4.1.1.4.3.6.5.2.2.5.6.8.9.6.6 1.2 1.3 1.6 1.7.1.1.2.2.2.3 0 .1 0 .2-.2.3-.1 0-.2.1-.3 0-.1 0-.2-.1-.3-.1-.1 0-.2-.1-.4-.1-.2.1 0 0 0 0s-.3.1-.1.4l.1-.2v.2H34c-.1 0-.3.1-.4.1-.2.1-.2.1.2 0-.2 0-.4.1-.7.2-.2 0-.5-.1-.7-.1-.5-.2-1-.3-1.6-.5-.6-.2-1.1-.4-1.7-.6-.6-.2-1.2-.5-1.6-.9-.4-.4-.6-1.1-1-1.6-.2-.2-.5-.5-.8-.5-.3 0-.6.1-.9.2-.2.1-.5.1-.6-.1-.2-.1-.2-.4-.2-.6-.1-.5-.1-.9-.2-1.3-.2-1.3-.4-2.8-.6-4.1-.3-1.4-.6-2.7-.8-3.8 0 .1 0 0 .1.4-.7-3.2-.5-1.9-1.4-5.5-.4-1.8.5 1.9.2.7 0-.3-.3-1.3-.7-2.7-.2-.7-.6-1.4-1-2-.4-.6-.8-1.2-1-1.8l.3.5c-.4-.8-1-1.7-1.3-2.8-.1-.5 0-1.2.1-1.8.1-.3.1-.7.2-1 .1-.5.2-1 .3-1.4-.2.1-.4.3-.6.4 0 0 .2-.1 0 0-.1.1-.2.2-.4.3l-.2.2-.1.1c-.2.2-.4.3-.5.7-.9 1.7-2.2 4-3.3 6-.1.3-.1.6-.2.9.1-.4.1-.8.1-.9.1-.2.1-.2 0 0v.1c-.3 1.3.2-.4-.3 2.2-.2.8-.6 2.7-.7 3l.5-2.5c-.3 1.2-.6 3.2-.9 4.5v-.2c-.4 2.1-.6 3-.8 4.2.1 1 .2 1.9.4 3.8v-.4c.3 2.2.2 1.9.5 4.1v.7c0 .3 0 1 .4 1.5s.8 1 1.3 1.5c.9 1.1 2 2.3 2.8 3.3-1-1.2-3.1-3.5-4.3-5 .9 1.2 3.2 3.8 3.7 4.4-.4-.5-.9-1-1.2-1.5.4.4.8.9 1.3 1.5.1.1.2.3.4.4.1.1.3.3.3.4 0 .4-.5.1-.8 0h-.2l.1.1c.1.2.2.4.1.6-.1.2-.3.3-.5.3-.5.1-.9 0-1.5 0 .2-.1-.7 0-2 .1-.6-.1-1.3-.3-2-.4-.2 0-.4-.1-.5-.1-.1 0-.3-.2-.4-.3l-.6-.9c-.1-.2-.2-.3-.2-.5.2-.3.1-.4.2-.5 0-.3 0-.7-.1-1 0-.6-.1-1.1-.1-1.5L7.8 89l-.1-1.1v-.6.1l-.1.1-.2.2-1 1.5c-.1.2-.3.4-.4.6-.1.2-.3.3-.4.3-.1 0-.2-.4-.3-.6-.1-.3-.1-.6-.1-1-.3-.7-.2-1.3 0-2s.3-1.4.4-2.2c.2-1.5.4-3 .5-4.5-.3 2.1.2-1.8 0-1.4.1-1.4.2-1.9.2-2.1 0 0 0-.3.1-.7 0-.4.1-.9.2-1.5.3-.9.4-1.9.4-1.9.1-1-.1 1.4 0 1.2.1-1.5.1-1.9.2-2.1 0-.2.1-.3.1-1.3 0 .2 0-.1-.1-.6 0-.3-.1-.6-.1-1-.1-.4-.1-.7-.1-1.2v.4c0 .2 0 .5.1.8-.1.6-.1 1.2-.1 1.2 0-.5-.1-.9-.1-1.2-.1-.4-.1-.6-.1-.9 0-.6 0-1 .1-1.4.1-.8.2-1.5.4-2.8 0-.3.3-.9.5-1.5 0 0-.1.3-.3.6-.1.2-.1.3-.2.4v.2c.1-.4.5-1.2.8-1.8.3-.3.6-.7 1-1.1 0-.5.1-.9.1-1.4.3-.6.5-1.3.8-1.9.3-1.5.6-2.7.7-3.5.1-.4.3-.9 0 .1.2-.7.3-1.3.5-2 .1-.3.2-.6.3-1 0-.2.1-.4.1-.6-.1-.2-.1-.4-.1-.5l-.6-2.1-.3-1c-.1-.3-.1-.7-.2-1-.2-1.4-.4-2.8-.6-4-.2-1.3-.6-2.4-1-3.4l.1.2c-.4-.9-.7-1.6-1.1-2.8 0 .1.1.4 0-.1-.2-.5-.7-2.5-.9-3.8l.2 1.1C7 31.2 6.9 30 6.7 29c-.1-.4-.2-1.8-.4-1.9l-.1-.1H6c-.1 0-.1.1-.2.2-.1.2-.2.5-.3.9l-.1.5v.4l-.1.7c0 .5-.1.9-.1 1.4l-.3 3s-.1.2-.1.7v.3h.1v1.2c0 1.3.1 2.8.1 3.8V40c.1 6.1.2 10.3.3 16 0 .7 0 1.7.1 2.8h-.2c-.1 2-.3 4.6-.4 7.2 0 .6-.1 1.3-.1 1.9 0 .3 0 .6-.1 1V70c-.3 1.2-.7 2.4-1.1 3.4.3-.8.1.2-.4 1-.1.3-.5.7-.4.4-.1-.3-.2-.8-.3-1.1-.2-.7-.3-1.2-.3-1.1l.1.5c-.1-.5-.3-1.4-.6-2.4 0-.2 0-.2-.1-.4S1.1 70 1 70c-.2 0-.3-.2-.3-.5-.1-.5-.2-1.1-.2-1.6l-.1-.3c0-.7.1-1.4.2-2.2.1-.8.3-1.5.6-2.3.6-1.6 1-3.3 1.4-4.9.2-.8.4-1.6.5-2.4.1-.8.1-1.5.2-2.2.1-1.4 0-2.5.1-3.2-.1-1.3-.2-3-.3-4.3l.1.1c-.2-3.8-.3-5.6-.5-10.2l.1 1c-.1-2.6-.4-3.2-.4-5.6l.1-.7c0-1.2.1-2.4.3-3.7l.3-1.8.2-.9.1-.4.1-.2v-.1s.1.1-.2-.1l.2.1c.7-1.4 1.4-2.8 2.1-4.3l.9-1c0 .1-.1.2-.6.7.4-.4.9-1 1.4-1.6.3-.3.6-.6.9-1 .3-.3.7-.5 1-.8 1.4-1 2.6-1.3 2.2-1.2 0 0 .3-.1.7-.1H14c1.5 0 3.2-.1 4.4-.1H18c2.1-.1 2.1-.1 5-.2h-.3c2.3 0 1.8 0 4.5-.1l-1 .1c2.3-.1 2.1-.1 3.4-.3.7-.1 1.8-.2 2.8-.2 1 0 1.8 0 1.9.1.3 0 1.6.2 2.9.4h-.6c3.9.6 5.8.6 8.4.8.1 0 .2 0 .5.1-3.1-.1-5.6-.4-5.3-.4 0 .1 2.5.3.5.2 2 .2 5.4.3 7.9.3h.3-.3 3.5c.3 0 2.9 0 4.1-.1-.1-.1 1.5-.1 0-.1h-1.6.1c-.8 0-1.9 0-3.1.1 1 0 2-.1 3.4-.1.6-.1 1.3-.1 1.7-.1 1.7 0 5-.1 5.5-.1 3.8-.2 8.9-.7 11.3-1.2 1.1-.2 1.2-.1 1.6-.2-.6.1-1.3.2-1.7.3.5-.1 1.2-.2 1.9-.3.4-.1.7-.1 1.1-.2l.5-.1h.5c1.4-.1 2.6.2 2.8.1 2.7.3-1.5-.1 2.2.3h-.5c1.8.2 3.5.5 5.1.6.8 0 1.6 0 2.4-.2.8-.2 1.5-.6 2.2-.8 2.9-1.1 5.9-2.2 9.8-3.5-.5.2-.8.3-.9.3 1.5-.6 3.1-1 4.4-2 1.4-.9 2.8-1.9 4.1-2.8 0-.5 0-.6-.1-.9v-.7c.1-.5.5-.8.9-1 .8-.5 2-.7 2.7-.1h.1l.1-.1-.1-.1c0-.1-.1-.1-.1-.2s-.1-.1-.1-.2.1 0 .2.1.2.1.4.2h.2v-.2c0-.1-.1-.1-.1-.2v-.1c.1.1.1.1.1.2.1.1.2.2.3.4h.2c.1-.1.1-.1.1-.2v-.6h.1c.1.1.1.2.1.2l.1.1c.1 0 0 .1.1.1.2-.1.2-.2.2-.3V.8h.2l.3.1c.2.1.4-.1.5-.2.1-.1.1-.2.2-.1.1 0 .2.1.3.2.1.1.2.2.3.4l.1.1h.1c.2 0 .2-.1.2-.1V.9c0-.1 0-.2.1-.3 0-.1.1 0 .1 0l.1.1s.1.1.2.1c.1.1.3 0 .3-.1V.5c0-.1.1 0 .1 0s0 .1.2 0c.1 0 .2-.1.2-.2l.1-.1h.1c.4.2.7.4 1 .6 1.7 0 2.1 0 3.4.1l.6.1s.7 0 1.3.1c.7.1 1.3.4 1.3.4.7.3 1.3.6 1.8 1.1.3.2.5.4.7.7.1.1.2.3.3.4l.1.2.1.1h.2c.7 0 1.3.2 1.9.4.3.1.6.3.9.5.2.1.3.2.5.3l.2.2.1.1c-.1.2-.2.3-.4.5s-.3.4-.5.6c-.3.4-.7.8-1.2 1.2l.5-.4c-.2.2-.4.4-.7.6-.3.2-.6.2-1 .3-.4.1-.7.2-1.1.2-.4.1-.7.1-1.1.2.1.4.1.8.2 1 0 .2.1.3 0 .3.1.2.2.6.4 1.2v.1s.4 1 1 1.9c.6.9 1.3 1.7 1.3 1.7 1.1 1.3 1 1.2 1 1.3 0 .1.2.3 2 2 .3.3.7.7 1.2 1l.6.6c.3.2.5.3.7.4.9.5 1.4.8 1.2.6-.6-.4-1.6-1-1.6-1l1.4.8c.2 0 .5.2.4.1-.1-.1-.2-.2-.6-.4-.2-.1-.4-.3-.7-.5-.1-.1-.3-.2-.5-.3l-.5-.5-2.1-1.9-.6-.7s.4.4.9.8c.4.4.9.8.9.8-1-.9-1.6-1.5-2.3-2.2-.1-.2-.4-.5-.7-.9 0 0-.5-.5-.9-1-.2-.3-.4-.6-.6-.8l-.2-.4c-.1-.3.7 1-.2-.6-.6-1.1.5 1.1-.5-.8-.2-.6-.3-.9-.4-1.1-.1-.2-.2-.6-.3-1.3 0 .1.1.4.1.7 0-.2-.1-.5-.2-.8.3 0 .5-.1.8-.1.3-.1.7-.1 1-.2.3-.1.6-.1.8-.2.3-.1.4-.2.5-.3.3-.2.8-.6 1.1-1.1.2-.2.4-.5.6-.7.2-.2.3-.4.6-.9-.1-.1-.2-.2-.4-.3-.1-.1-.2-.1-.2-.2-.1-.1-.3-.2-.4-.3-.2-.1-.3-.2-.3-.2-.2-.1-.8-.4-1.5-.5-.4-.1-.8-.1-1.2-.2-.2 0-.1 0-.3-.2-.1-.2-.2-.3-.3-.4.8 1 .1-.2-1.1-1.1-1.2-.9-2.9-1.3-2.6-1.2-.6-.1-1.4-.2-2.4-.2-.5 0-1 0-1.5-.1H119l-.5-.3c-.2-.1-.3-.2-.7-.3-.1 0-.2.1-.3.2l-.1.1v.1-.1c-.1 0-.1-.1-.1-.1h-.2l-.1.1v.2s-.1 0 .1.1c.1 0 0 0 0 0V.2h-.1c-.2-.2-.4-.4-.7-.3-.1.1-.2.2-.2.4v.3s0-.6.2-.8c.1 0 .2-.1.3 0h-.3c-.1.1-.2.2-.2.3 0 .1-.1.3-.1.4v.1h.1l.1.1c0-.1 0 0 0 0s.1-.2.1-.1l-.1-.1c-.2-.2-.3-.4-.7-.6-.2-.1-.5.2-.6.3l.1.3c-.2-.1-.5-.1-.8-.2h-.2c0 .1 0 .3.1.5v.6c.1 0 .1.1.1.1-.1.1.1-.2.1-.1v-.1c-.1-.1-.2-.3-.3-.4-.2-.2-.2-.2-.3-.2h-.1v.4c0 .1.1.3.1.5v.2c.2.1.1 0 .1 0v-.1c-.2-.2-.5-.6-.6-.6-.1 0-.1-.1-.2-.1s-.1.1-.1.2.1.1.1.2v.3s.1.1.1.2l.1.1v-.1h.2s-.1 0 0 .1v.1l-.1-.1s-.1-.1-.1 0v-.1l-.1-.1v-.4c0-.1-.1-.1 0-.2l.1-.1h.2c.1 0 .2 0 .1-.1h-.2c0-.1 0 0 0 0l-.1.1v.5c0 .1 0 .1.1.2l.1.1.1.1.1.1v-.2h.1-.1l-.1-.1-.5-.3c-.1-.1-.2 0-.3 0h-.1l-.1.1c-.1.2 0 .3.1.5.2.3.3.5.2.2.1.1.1.2.2.3.1 0-.1.1.2 0l.1-.1-.1.1.1-.1c-.6-.5-1-.4-1.2-.5h-.9c-.1.1-.5.2-1 .5-.2.1-.5.3-.7.6-.2.3-.4.6-.4 1-.1.7.2 1.2.1 1.1h-.1c-.1 0-.1.1-.2.1-.2.1-.5.3-1.3.9-1.4.2.5-1.2.5-1.2zM48 14.5h1.3H48zm-5.2-.2c.6 0 1.4.1 2.3.1h-.5c.2.1-1.1 0-1.8-.1zm11 .6h-1.2 1.6-.4zm1.5-.1h.3-.8.5zm32.1 75.8c0 .1 0 0 0 0zM2.9 51.4v-.5"/><path d="M87.7 63c0-.1.1-.2.1-.4 0 .1 0 .2-.1.4zm8-7.8l.9-1.5c-.4.6-.7 1.1-.9 1.5zm4.8-8.3v-.2.2zM38.9 58.8l-.3.3c-.6.6-.2.1.3-.3zm34.2 8.4c0-.2-.1-.4-.1-.6v-.8.8c0 .4 0 .6.1.6zM34.9 90.3l.2.2-.2-.2zm38-26.7zm57.6-36.9l.5.1h.1l-.6-.1zm.5.1l.5.1c-.3-.1-.5-.1-.5-.1zm1.5.2l-1.1-.2c.4.1.9.2 1.1.2zm-14.6-.9h-.1.1zm-3.8.5c.4-.2 1-.3 1.6-.4.6-.1 1.3 0 1.9 0h.1-1.7c-.8 0-1.5.2-1.9.4zm-10.3 12.1s.5-.7.9-1.3c.5-.7 1-1.3 1-1.3-.4.4-.8 1 .1-.2-2.5 3.3.4-.7-2 2.8zm-4 9.1c.8-1.5 0 0 0 0-.5.9-.7 1.1 0 0zM81.6 92.3s.1-.1 0 0c0 0-.1-.1-.2 0h-.2c-.1 0 0 0 0 0 .2-.1.5 0 .4 0zm-8.3-5.5v1.4l.1.6v-1c-.1-.5-.1-1-.1-1zm.8-8.2v.6V77M24.7 88l.4-.1c.4-.2.8-.1.8-.1-.1 0-.5-.1-1.2.2zm-13.3-4.9c0 .6.2 2 .3 2.9-.1-1.2-.2-2.3-.3-2.9zM.7 65s0 .3-.1.5v.5s.1-.5.1-1c.1-.4.2-.9.2-.9l-.2.9z"/></g><path d="M9.8 40.3l1.4-.8c.2-.1.5-.2.7-.2l1.6-.1c.3-.1.5-.3.6-.5l1-2.2.8-2.8c.1-.2.4-.2.6-.4.2-.2.3-.5.4-.5l3.4.2c.4 0 .8.3.9-.1l.5-.4c.3-.1.5-.7.5-1.1l.1-1.7c.1-.5.5-.7.6-.7l1.2-1.4c.2-.2.3-.4.2-.7l-.2-4.3c0-.1 0-.2-.1-.3l-1-1.7c-.1-.2-.2-.8-.2-1l.2-1c0-.2 0-.5-.2-.7L21.4 16c-.2-.2-1.4-2-1.7-2h-7.9c-.1 0-.5.1-.7.1 0 0-.3.1-1 .4-.4.2-1.4.9-1.4.9-.1 0-.2.1-.2.2l-.8.6-1 1.2s-.1.1-.1.2L5.4 19l-.4.7L3.4 23c-.1.1-.3.7-.3.8l-.5 2.7-.3 3.7c0 .3.2.6.5.8l1.4.8c.5.3 1.2 0 1.3-.7l.2-1.6v-.1l.4-2.2c0-.2.2-.1.2.1l.5 4s.6 3.5 1 4.3c.5 1.2 1.1 2.8 1.4 3.8.1.5.2 1 .6.9zm36.5-25.6l2.1 2.3 4.1-.2 5.1 3.9c.3.2.5.6.5 1v2.2c0 .3-.2.6-.4.8l-.6.3c-.4.2-.9.1-1.1-.4-.1-.3-.5-.5-.8-.3-.6.4-1 .9-1.2 1.6l-.5 1.7c-.9 3.1-.8 6.4.2 9.5l.2.6c.3.8 1.3 1.1 1.9.5l.5-.6c.2-.2.5-.2.6.1l.2.4c.1.3.5.5.8.4l.5-.1c.3-.1.5.3.3.5l-5.6 7.4c-.3.4-.2 1 .3 1.2.4.2.8.1 1.2-.2l.3-.2c.4-.3.9-.4 1.3-.1l3.7-2.8c.6-.5 1.1-1 1.4-1.7l2.3-4.4c.2-.4.8-.6 1.2-.3l-.3 3c-.1.7.2 1.4.7 1.9l2 1.9c.6.6 1.6.5 2.2-.1l1.4-1.7c.3-.4.4-1 .3-1.5l-.1-.4c-.2-.5-.1-1 .2-1.4l1.5-2.6c.4-.6.4-1.5-.1-2.1l-.6-.9c-.3-.5-.4-1.1-.3-1.7l1.7-3.7c.3-1.4-1.8-5.8-2.1-7.3l-4.2-4c-.7-.6-.4-1.7.4-2l4.5-1.6s-5.1.6-11.1.9c-3.4.1-14.6.2-14.6.2zm33-.3l-1.9 3.7c-.4.9-.2 1.9.4 2.7l1.6 1.9c.1.1.2.3.3.5l2.1 3.6c.3.5-.2 1.2-.8 1l-2-.6c-.4-.1-.8.3-.7.7l.8 2.9-.4 1.2 1.9 4.7c.3.8.3 1.8 0 2.6l-3.4 9.4c-.1.3.2.7.5.6l2.9-.8c.6-.2 1.2.3 1.2.9v1c0 .7.8 1.1 1.3.6l4.6-4.4c.3-.3.6-.7.7-1.1l.7-1.8c.3-.8 1.3-1 1.8-.4l.9.9c.4.4.5 1 .3 1.5l-1 2.9c-.3.9.7 1.6 1.4 1.1l2.3-1.5c.4-.3.7-.6.8-1.1l3.7-10.4c.1-.2.2-.4.3-.5l1.4-1.8c.4-.4.8-.7 1.4-.8h.3c1-.2 1.7-.8 2.1-1.7l3.5-9.1c.3-.7 1-1.2 1.8-1.3l1.3-.1h.3l13.5 1c1.2.1 2.1-1.1 1.7-2.3l-1-2.9c-.2-.5-.5-1-.8-1.4 0 0-2.2-1.4-2.6-2.1-.6-.9-.9-3.2-1.7-4-.5-.5-2-1-2.5-1.4-1.8-1.6-4.3-7.2-7.2-6.7-3.3.6-2 3-2 3s-1.8 1.6-4.6 3.1c-2.1 1.2-4.7 2.2-7.1 3-2.4.7-5.7 2.3-9.4 2.8-1.7.2-6.9-.6-6.9-.6-.7 0-1.4.8-1.8 1.5z"/><path fill="#FFF" stroke="#000" stroke-miterlimit="10" d="M109.1 4.4c.2.4 1.4 1.3 2 1.3.7 0 2.3-.7 3-1 .2-.1 1.1-.3 1.3-.3l4.6-.6v-.1s-2.3-1.2-3.1-1.4c-.7-.2-6-.4-6.7-.2-.6.3-1.3 1.8-1.1 2.3z"/><path fill="#FFF" d="M115.2 11s1.3 1.6 2 1.6c.5 0 2-1.2 2-1.2l-1-.3s-.9 0-1.2.1c-.5 0-1.8-.2-1.8-.2z"/></svg>