<svg xmlns="http://www.w3.org/2000/svg" viewBox="0 0 187.2 123.2"><path fill="#A8C95C" d="M40 118.4c1.3-.6.3-3.4 1.2-7.2 1-4.5 3.7-7 3.2-7.4-.4-.3-2.1.7-3.2 2.2-2.2 2.7-2.4 6.3-2.6 6.3-.1 0 0-.2 0-.2.1-1.9-1-7.6-1.3-9.3-.9-3.7-3.1-6.6-3.5-6.4-.4.1.8 2.8 1.3 7.5.4 3.9.2 7.4-.1 7.4-.2 0-.3-1.1-1.2-3.1-.4-.9-1.3-3-1.6-2.9-.3.1.7 2.6.8 6.2.1 3.7-.9 5.6.1 6.3.8.6 1.7-.5 4-.2 1.7.2 2.2 1.1 2.9.8z"/><path fill="#A0C48D" d="M6.1 119.6c-1.8-.8-.4-4.7-1.6-10-1.4-6.2-5.1-9.7-4.4-10.3.5-.4 2.9 1 4.5 3 3 3.7 3.3 8.8 3.6 8.7.1 0 .1-.3.1-.3-.1-2.7 1.3-10.6 1.9-12.9 1.2-5.2 4.3-9.1 4.8-8.9.5.2-1 3.9-1.7 10.5-.6 5.4-.3 10.2.2 10.3.3 0 .4-1.5 1.6-4.2.5-1.2 1.8-4.1 2.2-4 .4.1-1 3.6-1.1 8.6-.1 5.2 1.3 7.8-.1 8.8-1.1.8-2.4-.7-5.6-.3-2.7.2-3.4 1.5-4.4 1z"/><path fill="#A8C95C" d="M152.9 118.4c1.1-.5.3-2.9 1-6.3.9-3.9 3.2-6.1 2.7-6.5-.3-.3-1.8.6-2.8 1.9-1.9 2.3-2.1 5.5-2.3 5.5v-.2c.1-1.7-.8-6.7-1.2-8.1-.8-3.2-2.7-5.7-3-5.6-.3.1.7 2.5 1.1 6.6.4 3.4.2 6.4-.1 6.4-.2 0-.3-.9-1-2.7-.3-.8-1.1-2.6-1.4-2.5-.3.1.6 2.2.7 5.4.1 3.3-.8 4.9.1 5.5.7.5 1.5-.5 3.5-.2 1.6.3 2 1.1 2.7.8z"/><path fill="#736357" d="M186.2 26.9l-2.3-1.3c-.1 0-.1-.1-.2-.2-2.4-2.5-8.9-7-9.7-13.8 1-.1 3.2-.5 3.8-.9 1.4-.8 3.1-3.4 3.1-3.4s-2.1-1.9-5.1-1.9c-.5-.9-2.2-3-5.6-3.7-1.5-.3-6-.4-6.6-.4-.6-.4-1.2-.8-1.5-.8-.1 0-.3.3-.5.4-.2 0-.3-.3-.4-.3-.1.1 0 .3-.1.4-.2.1-.6-.6-.8-.5-.2.1-.2 1-.3 1-.2 0-.6-.8-1-.9-.3-.1-.5.6-.8.5-.5-.2-.9-.3-.9-.3s.1 1-.1 1c-.1 0-.6-1-.7-1-.2 0 .3 1.3.1 1.4-.1.1-.9-1.1-1-1-.3.3.5.8.2 1l-1.1-.6c-.2.2.5 1.2.5 1.2s-1.6-1.4-4 .2c-1.8 1.2-.7 3.1-.7 3.1l-6 4c-.6.4-1.3.7-2 1l-14.7 5.3c-2.5 1.2-3 1.1-5.8 1.1l-10.2-1.2c-.7-.1-1.4-.1-2.2 0 0 0-14.5 2.6-36.2 2.5-5.8 0-13.2-.6-17.7-1.5-2.7-.5-6.8.2-11.8.4-8.5.3-17.8.2-17.8.2-1.8.1-4.8 2.3-5.2 2.8l-3.2 3.6-2.3 5.7c-.2.2-.9 3.5-1.1 7.3-.2 3.6 0 7.7 0 8.3.7 9.4.9 16.6.9 16.6 0 .1.4 7.3-.4 10.8-2.1 8.9-2.8 8-3.1 11-.6 7.2.9 5.6 1.1 6.2l1.5 5.8c.7 1.8 2.7-4.3 3.2-6.5l.7-13.7c0-.2-.6-30.2-.6-30.4 0 0 .9-11.1 1.4-10.2.2.3.5 4.9 1.5 9 .7 3 2.1 5.2 2.7 8.1.7 3.2.8 6.1 1.1 6.9l1.3 4.7c.1.5-.3 1.5-.4 2l-1.6 6.9-1.1 2.4V77l-1.2 1.3-1 2.2c-.1.2-.1.4-.1.6 0 0-.8 4.7-.4 6.3.7 2.7-.2 9-.2 9s-.9 12.2-1.8 14.7c-.4 1.1-.1 2 0 2.3 0 0 .1 2.2.7 2.3.4.1.9-.6 1.3-1.3.6-.9 1.1-1.8 1.1-1.8l.5 6.5c.3.8 1.1 2.7 1.9 2.8l3.1.7 2.7-.2c1 .2 1.9.2 2.4-.4.2-.2-.1-.9-.1-.9s.6.2.7.3c.7.2.5-.5.5-.5l-5.4-6.5c-.4-.5-.5-1.1-.5-1.7l-1.1-10.6 2.9-14.5 4.3-7.6c0-.3.7-.9 1.7-1.6-.3 1.2-.9 3.9-.8 4.8.2 1.9 2.6 5.1 3.5 6.8 1.1 2.3 3.6 14.7 3.7 14.9l1 7.4c.1.5.6.8 1.1.6.5-.2 1.1-.4 1.5-.2.9.3 1.3 2 1.9 2.6 1 1 5.3 2.3 6.6 2.6.3.1.6.1.9 0l1-.3c.2-.1.1-.3 0-.3-.1-.2.1-.4.3-.3l.7.3h.1l.3-.1c.4-.1.5-.5.3-.8l-3-3.3-4.7-3.9c-.5-.4-.8-.9-1-1.5l-3.1-16.3c-.1-.3-.1-.5-.1-.8l-.9-8.2 1.7.1h.8c.2 0 .4.1.4.2l.9 2c.1.1.2.1.3 0l.7-1.4c0-.1.2-.1.2 0l1.3 3c.1.3.5.2.6-.1l1.3-4.6 2-.6 3.1-2.4 4.2-4.3 4.1-.9c1.1.9 2.1 1.6 3 2 6.1 2.2 15.7 1.5 15.9 1.5 8.6-.4 13.3-3.6 18.6-3.9.2 0 1.5.3 1.7.3l.1 11.8 1 6.4v12.9s-1 8.9-.4 9.4c.6.4 1.8-1.3 1.8-1.3l.5 1.6.7.1.6 1.6.5 1.9c.1.3.3.5.6.5h5.5c.4 0 .6-.4.5-.7l-.5-.7c.4-.2 1.1-1.4 1.1-1.4s1.2 4.9 2.5 5.8c1 .7 8.1.9 8.1.9l-.5-1.1 2-.5s-6.1-4.3-7.2-6.2c-2.1-3.8-1.7-22-1.7-22l1.8-2 .8-7.4 2.2-6.9v-.1c.3.1.5.1.5.1.3 0 3.7-.7 4-.8 1.9-1 1.6 0 9.8-14.1 1.3-2.2 1.6-6 2.7-7.8 3.8-6.5 9.5-13 12-16.6 1.4-2 3.8-3.2 6.3-3.2h13.7l8.9 1.5h.2c1.2.1 2.3-.5 2.8-1.6.1-.2.2-.4.2-.6l.7-4.1c.4-.7.2-1.3-.2-1.8zM114.9 105l-.9 9.8-4.3-6.6.7-12.9 3.6-17.6.9-.3-.7 15.9.7 11.7zm54.7-98.2c-.7-.7-1.4-1.5-1.9-2.2.7-.1 1.6-.2 2-.2 2 0 4.2.6 5.5 1-1.2.2-4.6 1.1-5.6 1.4z"/><g fill="none" stroke="#303030" stroke-miterlimit="10"><path d="M186.2 26.9l-2.3-1.3c-.1 0-.1-.1-.2-.2-2.4-2.5-8.9-7-9.7-13.8 1-.1 3.2-.5 3.8-.9 1.4-.8 3.1-3.4 3.1-3.4s-2.1-1.9-5.1-1.9c-.5-.9-2.2-3-5.6-3.7-1.5-.3-6-.4-6.6-.4-.6-.4-1.2-.8-1.5-.8-.1 0-.3.3-.5.4-.2 0-.3-.3-.4-.3-.1.1 0 .3-.1.4-.2.1-.6-.6-.8-.5-.2.1-.2 1-.3 1-.2 0-.6-.8-1-.9-.3-.1-.5.6-.8.5-.5-.2-.9-.3-.9-.3s.1 1-.1 1c-.1 0-.6-1-.7-1-.2 0 .3 1.3.1 1.4-.1.1-.9-1.1-1-1-.3.3.5.8.2 1l-1.1-.6c-.2.2.5 1.2.5 1.2s-1.6-1.4-4 .2c-1.8 1.2-.7 3.1-.7 3.1l-6 4c-.6.4-1.3.7-2 1l-14.7 5.3c-2.5 1.2-3 1.1-5.8 1.1l-10.2-1.2c-.7-.1-1.4-.1-2.2 0 0 0-14.5 2.6-36.2 2.5-5.8 0-13.2-.6-17.7-1.5-2.7-.5-6.8.2-11.8.4-8.5.3-17.8.2-17.8.2-1.8.1-4.8 2.3-5.2 2.8l-3.2 3.6-2.3 5.7c-.2.2-.9 3.5-1.1 7.3-.2 3.6 0 7.7 0 8.3.7 9.4.9 16.6.9 16.6 0 .1.4 7.3-.4 10.8-2.1 8.9-2.8 8-3.1 11-.6 7.2.9 5.6 1.1 6.2l1.5 5.8c.7 1.8 2.7-4.3 3.2-6.5l.7-13.7c0-.2-.6-30.2-.6-30.4 0 0 .9-11.1 1.4-10.2.2.3.5 4.9 1.5 9 .7 3 2.1 5.2 2.7 8.1.7 3.2.8 6.1 1.1 6.9l1.3 4.7c.1.5-.3 1.5-.4 2l-1.6 6.9-1.1 2.4V77l-1.2 1.3-1 2.2c-.1.2-.1.4-.1.6 0 0-.8 4.7-.4 6.3.7 2.7-.2 9-.2 9s-.9 12.2-1.8 14.7c-.4 1.1-.1 2 0 2.3 0 0 .1 2.2.7 2.3.4.1.9-.6 1.3-1.3.6-.9 1.1-1.8 1.1-1.8l.5 6.5c.3.8 1.1 2.7 1.9 2.8l3.1.7 2.7-.2c1 .2 1.9.2 2.4-.4.2-.2-.1-.9-.1-.9s.6.2.7.3c.7.2.5-.5.5-.5l-5.4-6.5c-.4-.5-.5-1.1-.5-1.7l-1.1-10.6 2.9-14.5 4.3-7.6c0-.3.7-.9 1.7-1.6-.3 1.2-.9 3.9-.8 4.8.2 1.9 2.6 5.1 3.5 6.8 1.1 2.3 3.6 14.7 3.7 14.9l1 7.4c.1.5.6.8 1.1.6.5-.2 1.1-.4 1.5-.2.9.3 1.3 2 1.9 2.6 1 1 5.3 2.3 6.6 2.6.3.1.6.1.9 0l1-.3c.2-.1.1-.3 0-.3-.1-.2.1-.4.3-.3l.7.3h.1l.3-.1c.4-.1.5-.5.3-.8l-3-3.3-4.7-3.9c-.5-.4-.8-.9-1-1.5l-3.1-16.3c-.1-.3-.1-.5-.1-.8l-.9-8.2 1.7.1h.8c.2 0 .4.1.4.2l.9 2c.1.1.2.1.3 0l.7-1.4c0-.1.2-.1.2 0l1.3 3c.1.3.5.2.6-.1l1.3-4.6 2-.6 3.1-2.4 4.2-4.3 4.1-.9c1.1.9 2.1 1.6 3 2 6.1 2.2 15.7 1.5 15.9 1.5 8.6-.4 13.3-3.6 18.6-3.9.2 0 1.5.3 1.7.3l.1 11.8 1 6.4v12.9s-1 8.9-.4 9.4c.6.4 1.8-1.3 1.8-1.3l.5 1.6.7.1.6 1.6.5 1.9c.1.3.3.5.6.5h5.5c.4 0 .6-.4.5-.7l-.5-.7c.4-.2 1.1-1.4 1.1-1.4s1.2 4.9 2.5 5.8c1 .7 8.1.9 8.1.9l-.5-1.1 2-.5s-6.1-4.3-7.2-6.2c-2.1-3.8-1.7-22-1.7-22l1.8-2 .8-7.4 2.2-6.9v-.1c.3.1.5.1.5.1.3 0 3.7-.7 4-.8 1.9-1 1.6 0 9.8-14.1 1.3-2.2 1.6-6 2.7-7.8 3.8-6.5 9.5-13 12-16.6 1.4-2 3.8-3.2 6.3-3.2h13.7l8.9 1.5h.2c1.2.1 2.3-.5 2.8-1.6.1-.2.2-.4.2-.6l.7-4.1c.4-.7.2-1.3-.2-1.8z"/><path d="M114.9 105l-.9 9.8-4.3-6.6.7-12.9 3.6-17.6.9-.3-.7 15.9.7 11.7zm54.7-98.2c-.7-.7-1.4-1.5-1.9-2.2.7-.1 1.6-.2 2-.2 2 0 4.2.6 5.5 1-1.2.2-4.6 1.1-5.6 1.4z"/></g><path fill="none" d="M34.9 78.3l3 2.4c.3.3.6.6.7 1l1.2 4c.1.2.3.2.4 0l1.6-3.3c.1-.3.5-.4.7-.3l1 .4"/><path d="M34.9 78.2s.9.4 2.1 1.2c.3.2.6.4.9.7l.5.5c.1.2.3.4.3.7.1.5.2.9.3 1.4.1.5.3.9.5 1.3s.4.9.6 1.3l.1.1v-.1l-.1-.1h-.2c-.1 0-.1.1-.1.1l.3-.6c.4-.8.8-1.6 1.2-2.2.1-.2.2-.3.3-.5.2-.3.4-.4.7-.4.2 0 .5.1.6.1.1.1.2.1.3.2.4.2.5.4.5.4v.1s-.2 0-.7-.1c-.1 0-.2-.1-.3-.1h-.2c-.1 0-.1.1-.1.1-.1.1-.1.3-.2.5-.3.7-.6 1.4-1 2.2l-.3.6c0 .1-.2.3-.4.3-.2.1-.4.1-.5 0-.1 0-.2-.1-.2-.2-.1-.1-.1-.2-.1-.2 0-.1 0-.1-.1-.2-.1-.5-.2-.9-.3-1.4-.1-.5-.2-1-.3-1.4-.1-.4-.3-.9-.5-1.3-.1-.2-.2-.3-.4-.4-.2-.1-.3-.2-.5-.3-.3-.2-.6-.5-.9-.7-1.3-.7-1.9-1.5-1.8-1.6zm29.2-8.5s-.2-.3-.6-.7c-.4-.4-.9-1.1-1.5-1.8-.3-.4-.7-.7-1.1-1.1l-.6-.6c-.2-.2-.4-.4-.7-.6-.2-.2-.5-.4-.8-.5-.3-.1-.6-.3-.9-.4l-.9-.3-1-.1c-1.3-.1-2.6-.2-3.8-.2-1.2 0-2.3 0-3.1.2-.8.2-1.4.8-1.7 1.3-.3.5-.4.8-.4.8h-.1s0-.3.2-.9c.1-.3.3-.6.5-1 .3-.3.7-.7 1.2-.9 1-.5 2.3-.6 3.5-.5.6.1 1.3.1 1.9.3.7.1 1.3.3 1.9.5.7.2 1.3.4 1.9.7.3.1.6.3.9.4.3.1.6.3.9.4.6.3 1.1.6 1.6 1s.8.8 1.2 1.2c.6.8 1 1.6 1.3 2.1.2.3.3.7.2.7z"/><path fill="none" d="M181.6 27.8l-1.4.6-.1.1c-.6.5-.2 1.4.6 1.5l1.7.5"/><path d="M181.6 27.9c-.4.3-.9.5-1.3.8h.1l-.1.1-.1.1v.1c0 .1 0 .2.1.3 0 .1.1.2.2.2h.3c.3.1.6.2.8.4.3.2.5.4.8.6v.1c-.3.1-.7.1-1 .1-.3 0-.6-.1-.9-.2h.1c-.6-.1-1-.5-1.1-1-.1-.2 0-.5 0-.7 0-.1.1-.2.2-.3 0-.1.1-.1.1-.1l.1-.1h.1c.5-.3 1-.4 1.6-.4zM34.5 78.4s.3-.2.8-.7c.5-.4 1.2-1 2-1.6.4-.3.9-.7 1.4-1 .5-.3 1.1-.7 1.6-1.1.6-.4 1.1-.8 1.6-1.3s1-1.1 1.3-1.6c.4-.6.7-1.2 1.1-1.8.4-.6.7-1.2 1.1-1.8.2-.3.4-.6.5-.8l.4-.8c.3-.5.5-1 .7-1.5.4-1 .7-1.8.8-2.4.2-.6.3-1 .3-1h.1v1c0 .6-.1 1.6-.4 2.6-.1.5-.3 1.1-.6 1.7-.3.6-.6 1.2-1 1.7-.4.6-.8 1.1-1.2 1.7-.4.6-.9 1.2-1.4 1.7-.5.5-1.1 1-1.6 1.5l-1.5 1.5c-.5.5-.9 1-1.4 1.4-.5.4-1 .7-1.4 1-1.8 1.2-3.2 1.7-3.2 1.6z"/><path d="M23.8 51.7l1.8-1 .9-.3 2.1-.1c.3-.1.6-.3.8-.7l1.3-2.8v-.1l1.1-3.5c.1-.2.5-.2.7-.5.2-.2.3-.7.6-.6l4.4.2c.5 0 1 .4 1.2-.1l.6-.5c.4-.2.6-.9.6-1.4l.1-2.2c.1-.7.7-.8.8-.9l1.5-1.8c.2-.2.3-.5.3-.8l-.3-5.5c0-.2 0-.3-.1-.4l-1.3-2.2c-.1-.2-.3-1.1-.3-1.3l.2-1.3c.1-.3 0-.6-.2-.8l-2-2.4c-.2-.3-1.8-2.6-2.1-2.6h-10c-.2 0-.7.1-.9.2 0 0-.4.1-1.3.6-.5.2-1.8 1.1-1.8 1.1-.1.1-.2.1-.3.2l-1 .8-1.3 1.5-.2.2-1.6 1.7-.4.9-2.1 4.3c-.1.1-.4.9-.4 1l-.6 3.4-.4 4.8c-.1.4.2.8.6 1l1.8 1c.7.4 1.6-.1 1.6-.8l.2-2.1v-.1L19 35c0-.2.2-.2.2.1l.7 5.1s.8 4.5 1.2 5.5c.6 1.5 1.3 3.6 1.7 4.9.3.7.4 1.3 1 1.1zM70.5 19l2.6 3 5.2-.3 6.6 4.9c.4.3.6.7.6 1.2v2.8c0 .4-.2.8-.6 1l-.6.4c-.5.3-1.2.1-1.4-.5-.2-.4-.7-.6-1.1-.4-.7.5-1.3 1.2-1.5 2l-.6 2.2c-1.1 4-1 8.2.3 12.2l.2.7c.3 1 1.6 1.4 2.4.7l.6-.8c.2-.3.6-.2.8.1l.2.6c.2.4.6.6 1 .5l.6-.1c.4-.1.6.3.4.6L79 59.2c-.4.5-.2 1.2.4 1.5.5.2 1.1.2 1.5-.2l.3-.3c.5-.4 1.2-.5 1.7-.1l4.7-3.6c.8-.6 1.4-1.3 1.8-2.2l2.9-5.6c.3-.6 1-.8 1.6-.4l-.3 3.8c-.1.9.3 1.8.9 2.5l2.6 2.5c.8.8 2.1.7 2.8-.2l1.8-2.2c.4-.5.6-1.2.3-1.9l-.2-.5c-.2-.6-.1-1.3.2-1.8l2-3.3c.5-.8.5-1.9-.1-2.7l-.8-1.2c-.4-.6-.6-1.4-.4-2.1l2.1-4.8c.4-1.8-2.4-7.5-2.7-9.3L96.8 22c-.8-.8-.5-2.2.5-2.6l5.8-2s-6.5.7-14.2 1.2c-4.1.3-18.4.4-18.4.4zm42.2-.4l-2.4 4.8c-.6 1.1-.4 2.5.4 3.5l2 2.5c.2.2.3.4.4.6l2.6 4.7c.4.7-.3 1.5-1 1.3l-2.6-.8c-.6-.2-1.1.3-.9.9l1 3.7-.4 1.6 2.4 6c.4 1.1.4 2.2 0 3.3l-4.4 12c-.2.4.2.9.7.7l3.7-1.1c.8-.2 1.6.4 1.6 1.2l-.1 1.3c0 .9 1 1.4 1.7.8l5.8-5.6c.4-.4.7-.9.9-1.4l.9-2.3c.4-1 1.6-1.2 2.4-.5l1.1 1.1c.5.5.6 1.2.4 1.9l-1.3 3.7c-.4 1.1.9 2.1 1.8 1.4l3-2c.5-.3.9-.8 1.1-1.4l4.7-13.3c.1-.2.2-.5.4-.7l1.8-2.3c.4-.6 1.1-.9 1.8-1.1l.3-.1c1.2-.2 2.2-1 2.7-2.2l4.5-11.6c.4-.9 1.2-1.6 2.3-1.6l1.6-.1h.4l17.2 1.2c1.6.1 2.7-1.4 2.2-2.9l-1.2-3.7c-.2-.7-.6-1.3-1.1-1.8 0 0-2.8-1.8-3.4-2.7-.8-1.2-1.2-4.1-2.1-5.2-.6-.7-2.5-1.2-3.2-1.8-2.4-2.1-5.6-9.2-9.2-8.6-4.2.7-2.6 3.9-2.6 3.9s-2.3 2-5.8 4c-2.6 1.5-6 2.8-9.1 3.8-3 .9-7.1 3-11.9 3.6-2.2.3-8.8-.7-8.8-.7-.9.1-1.9 1.2-2.3 2z" fill="#F4EDE0"/><path fill="#F4EDE0" stroke="#000" stroke-miterlimit="10" d="M150.9 5.8c.3.6 1.8 1.6 2.6 1.7.9.1 3-.9 3.8-1.3.2-.1 1.4-.4 1.6-.4l5.9-.7s.1-.1 0-.1c0 0-2.9-1.5-3.9-1.8-.9-.3-7.7-.6-8.5-.2-1 .3-1.9 2.1-1.5 2.8z"/><path fill="#303030" d="M158.6 14.3s1.6 2 2.5 2c.7 0 2.5-1.6 2.5-1.6l-1.2-.4s-1.1 0-1.5.1c-.6.1-2.3-.1-2.3-.1z"/></svg>