<svg xmlns="http://www.w3.org/2000/svg" viewBox="0 0 198.3 133.3"><path fill="#CD5961" d="M14.2 121.8c-5.5 4.4-12.9-.7-14.2-5.2 8.7 0 25.4-13.3 29.7-28.8l.2-.9c-1.5.7-3.3 1.1-4.4 1.1 0-7.9 5.5-11.8 5.5-19 0-7-2.4-18.1-2.4-28.2 0-14.2 5.2-24.3 18.4-24.3h70.4c44.3 0 58.3 7.7 58.3 7.7l2.6 31.3c0 31-16.8 37.1-35.8 37.1 0 9.6 23.3 31.7 23.3 40.6h-13.1l-10.9-29.7v29.7h-12.5v-40c-9.8 0-35.6 1.3-43.1-11.8 0 14.7-6.7 16-6.7 22.1 0 8.3 12.3 21.6 12.3 29.7H77.4l-12-25.3-9.4 3.9 7 21.4H47.2L38.9 103c7.9-.7 16.8-3.3 16.8-16 0-11.1-19.4-18.2-19.4-34.8 0 17.7 5.2 22.7 5.2 36.7-1.3-.6-2.6-1.8-3.1-3.1-.1 19.1-13.5 44.5-24.2 36z"/><path fill="#B24258" d="M86.1 80.5c0 14.7-6.7 16-6.7 22.1 0 8.3 12.3 21.6 12.3 29.7H77.4l-12-25.3c8.3-3.3 15.6-14.4 17.4-26.5h3.3zm66.3 11.2c0 9.6 13.3 32.7 13.3 41.6h-13.1l-10.9-29.7V92.9l10.7-1.2z"/><path fill="#768CA3" d="M187 25.6c5 0 11.3-5.9 11.3-13.7 0-5.2-3-9.7-5.6-11.9l-1.3.4c.7 3.5 1.5 5.8 1.5 9.1 0 3.9-2.6 7.4-8 7.4l2.1 8.7zm-23.4.3l2-8.7c-5.4 0-8-3.5-8-7.4 0-3.3.7-5.6 1.5-9.1l-1.3-.4c-2.6 2.2-5.6 6.7-5.6 11.9.1 7.7 6.4 13.7 11.4 13.7z"/><path fill="#EDEDED" d="M177.9 62c5.9 0 10.4-4.8 10.4-16.5V19.6c0-5.6-6.1-7.2-13-7.2-6.7 0-13 2.4-13 8.4v17.3c0 17.4 7.2 23.9 15.6 23.9z"/><path fill="#CD5961" d="M161.4 28.5v17s5.5-1.5 5.5-8.7-5.5-8.3-5.5-8.3zm27 17v-17s-5.5 1.5-5.5 8.7 5.5 8.3 5.5 8.3z"/><path fill="none" stroke="#B24258" stroke-width="2" stroke-miterlimit="10" d="M185.4 37.5h6m-33 0h6"/><path fill="#CD5961" d="M123.2 16.7l-1.8-4.6c2.6 2 5.2 3.3 7.7 5.2-.7-3.9-3.3-7-6.5-9.6 2.6-1.3 9.9 3.9 10.8 10.3l-4.1 3.4-6.1-4.7z"/><path fill="#B24258" d="M166.8 56.5s3.3 6.1 10.3 6.1c7 0 9.2-6.1 9.2-6.1-9.6-6.2-19.5 0-19.5 0zm21.5-22c6.9 0 9.7-2.8 9.7-8.7l-9.7.6v8.1zm-25.8.1l-.3-8.1-9.7-.7c.1 6 2.8 8.8 10 8.8zm-29.7 31.3c-.1 3.2-1.9 6.3-4.6 7.8-1.4-4.7.9-10.2 5.2-12.5 1 1.4.9 3.5-.3 4.7h-.3zm11.4 19.5l8.4-21.6c.9-2.4 1.9-4.9 3.6-6.9 1.2 10.7-3.5 21.9-12 28.5zm-6.5-12c-1.6.5-2-2.2-1.3-3.8 2.6-5.9 7.2-11 12.8-14.3-1.3 8.4-4 16.5-7.9 24-2-3.1-.4-7.2 1.3-10.5-2.5 0-4.7 2.1-4.9 4.6z"/></svg>