<svg xmlns="http://www.w3.org/2000/svg" viewBox="0 0 1280 400"><pattern width="75" height="41.9" patternUnits="userSpaceOnUse" id="a" viewBox="15 -56 75 41.9" overflow="visible"><path fill="none" d="M15-56h75v41.8H15z"/><path fill="#EDEDED" d="M87.5-15c0 1.4 1.1 2.5 2.5 2.5s2.5-1.1 2.5-2.5-1.1-2.5-2.5-2.5-2.5 1.1-2.5 2.5zm9.6-13.3l-4.7 8.9c1.6.8 2.7 2.5 2.7 4.4h10c0-5.8-3.2-10.8-8-13.3zm-9.4 8.8L83-28.3c-4.7 2.5-8 7.5-8 13.3h10c0-2 1.1-3.6 2.7-4.5zm9.4 17.7l-4.7-8.9c-.7.5-1.5.7-2.4.7-.9 0-1.7-.2-2.4-.6L83-1.8C85.1-.6 87.5 0 90 0s5-.6 7.1-1.8zM12.5-15c0 1.4 1.1 2.5 2.5 2.5s2.5-1.1 2.5-2.5-1.1-2.5-2.5-2.5-2.5 1.1-2.5 2.5zm9.6-13.3l-4.7 8.9c1.6.8 2.7 2.5 2.7 4.4h10c0-5.8-3.2-10.8-8-13.3zm-9.4 8.8L8-28.3C3.2-25.8 0-20.8 0-15h10c0-2 1.1-3.6 2.7-4.5zm9.4 17.7l-4.7-8.9c-.7.5-1.5.7-2.4.7-.9 0-1.7-.2-2.4-.6L8-1.8C10.1-.6 12.5 0 15 0s5-.6 7.1-1.8zm65.4-55.1c0 1.4 1.1 2.5 2.5 2.5s2.5-1.1 2.5-2.5-1.1-2.5-2.5-2.5-2.5 1.1-2.5 2.5zm9.6-13.3l-4.7 8.9c1.6.8 2.7 2.5 2.7 4.4h10c0-5.8-3.2-10.8-8-13.3zm-9.4 8.9L83-70.2c-4.7 2.5-8 7.5-8 13.3h10c0-1.9 1.1-3.6 2.7-4.4zm9.4 17.7l-4.7-8.9c-.7.4-1.5.6-2.4.6-.9 0-1.7-.2-2.4-.6L83-43.6c2.1 1.1 4.5 1.8 7.1 1.8s4.9-.7 7-1.8zM50-36c0 1.4 1.1 2.5 2.5 2.5S55-34.6 55-36s-1.1-2.5-2.5-2.5S50-37.4 50-36zm9.6-13.3l-4.7 8.9c1.6.8 2.7 2.5 2.7 4.4h10c0-5.7-3.2-10.7-8-13.3zm-9.4 8.9l-4.7-8.9c-4.7 2.5-8 7.5-8 13.3h10c0-1.9 1.1-3.6 2.7-4.4zm9.4 17.7l-4.7-8.9c-.7.4-1.5.6-2.4.6-.9 0-1.7-.2-2.4-.6l-4.7 8.9c2.1 1.1 4.5 1.8 7.1 1.8s5-.7 7.1-1.8zM12.5-56.9c0 1.4 1.1 2.5 2.5 2.5s2.5-1.1 2.5-2.5-1.1-2.5-2.5-2.5-2.5 1.1-2.5 2.5zm9.6-13.3l-4.7 8.9c1.6.8 2.7 2.5 2.7 4.4h10c0-5.8-3.2-10.8-8-13.3zm-9.4 8.9L8-70.2c-4.7 2.5-8 7.5-8 13.3h10c0-1.9 1.1-3.6 2.7-4.4zm9.4 17.7l-4.7-8.9c-.7.4-1.5.6-2.4.6-.9 0-1.7-.2-2.4-.6L8-43.6c2.1 1.1 4.5 1.8 7.1 1.8s4.9-.7 7-1.8z"/></pattern><path fill="#768CA3" d="M0 20.6h1280.8v400H0z"/><path fill="#B9C2DE" d="M.7 387.6V235.4h1280v152.2"/><path fill="#5F6068" d="M.7 391.1v-30h1280v30M.7 235.8v-30h1280v30"/><path fill="#B9C2DE" d="M.7 94.3v-30h1280v30H.7z"/><path fill="#B9C2DE" d="M266.4 12.8h54.5v71.6h-54.5z"/><path fill="#5F6068" d="M.7 30V0h1280v30"/><path fill="url(#a)" d="M.8 236H1280v124.1H.8z"/><path fill="#768CA3" d="M1224 339H962c-22.1 0-40-17.9-40-40v-8c0-22.1 17.9-40 40-40h262c22.1 0 40 17.9 40 40v8c0 22.1-17.9 40-40 40z"/><circle fill="#EDEDED" cx="1163" cy="287.5" r="10"/><circle fill="#EDEDED" cx="1196" cy="306.5" r="10"/><circle fill="#EDEDED" cx="1198" cy="276.5" r="10"/><circle fill="#EDEDED" cx="1021" cy="280.5" r="10"/><circle fill="#EDEDED" cx="1052" cy="271.5" r="10"/><circle fill="#EDEDED" cx="991" cy="290.5" r="10"/><circle fill="#EDEDED" cx="1013.5" cy="306" r="5"/><circle fill="#EDEDED" cx="1042.5" cy="292" r="5"/><circle fill="#EDEDED" cx="1165.5" cy="317" r="5"/><circle fill="#EDEDED" cx="1214.5" cy="297" r="5"/><circle fill="#EDEDED" cx="1233.5" cy="315" r="5"/><circle fill="#EDEDED" cx="1172.5" cy="264" r="5"/><circle fill="#EDEDED" cx="1108.5" cy="277" r="5"/><circle fill="#EDEDED" cx="1093.5" cy="310" r="5"/><circle fill="#EDEDED" cx="957.5" cy="311" r="5"/><circle fill="#EDEDED" cx="998.5" cy="267" r="5"/><path fill="none" stroke="#7A8CA1" stroke-miterlimit="10" d="M1261 376.5h-11m-256-4h-11m83 6h11m94-4h-11m-25-2h-11m29 5h-11m-256-4h-11m83 6h11m-111-158h-11m-256-4h-11m83 6h11m94-4h-11m-25-2h-11m29 5h-11m-256-4h-11m83 6h11m125 153h-11m-256-4h-11m83 6h11m94-4h-11m-25-2h-11m29 5h-11m-256-4h-11m83 6h11"/><path fill="none" stroke="#4A4B57" stroke-width="2" stroke-miterlimit="10" d="M952 406h-11m-256-4h-11m83 6h11m94-4h-11m-25-2h-11m29 5h-11m-256-4h-11m83 6h11m424-7h-11m-25 7h11m-792 4h-11m2-13h-11m83 6h11m-245 0h11m833-242h11m-2 18h11m132-57h11m-57-12h11m180-9h11m-192 75h11m17-18h11m12-13h11m-1-10h11m-18-13h11m-65 23h11m30-12h11M225 44h11m-28 8h11m-33-8h11m941 4h11m-173 3h11m-68-7h11m-245 4h11m-53-6h11m-47 5h11m-54 1h11m58 6h11"/><path fill="none" stroke="#EDEDED" stroke-width="2" stroke-miterlimit="10" d="M1084 80h11m98-2h11m-68 3h11m-41-8h11m-191 8h11m14 2h11m6-7h11m-31-2h11m-614 8h11m55-7h11m-33 9h11m-110-9h11m66 0h11m179 4h11m21 5h11m-372 0h-11m-21-4h-11M33 81H22m142-6h-11m-36 1h-11m68 11h-11m460-8h11m-50-2h11m-144 7h11m236-3h11m-216-5h11m280 11h11m12-6h11m35-7h11m-90 1h11"/><path fill="none" stroke="#4A4B57" stroke-width="2" stroke-miterlimit="10" d="M975 108h11m-28 18h11m11-7h11m179 33h11m63 3h11m-102 15h11m11-7h11"/></svg>