<svg xmlns="http://www.w3.org/2000/svg" viewBox="0 0 1280.8 430.6"><pattern y="16" width="71.5" height="42.3" patternUnits="userSpaceOnUse" id="b" viewBox="15 -56.5 71.5 42.3" overflow="visible"><path fill="none" d="M15-56.5h71.5v42.3H15z"/><path fill="#C19D5C" d="M84-15c0 1.4 1.1 2.5 2.5 2.5S89-13.7 89-15s-1.1-2.5-2.5-2.5S84-16.4 84-15zm9.6-13.3l-4.7 8.9c1.6.8 2.7 2.5 2.7 4.4h10c0-5.8-3.2-10.8-8-13.3zm-9.4 8.8l-4.7-8.9c-4.7 2.5-8 7.5-8 13.3h10c0-1.9 1.1-3.5 2.7-4.4zm9.4 17.7l-4.7-8.9c-.7.4-1.5.6-2.4.6-.9 0-1.7-.2-2.4-.6l-4.7 8.9C81.6-.6 84 0 86.5 0c2.6 0 5-.6 7.1-1.8zM12.5-15c0 1.4 1.1 2.5 2.5 2.5s2.5-1.1 2.5-2.5-1.1-2.5-2.5-2.5-2.5 1.1-2.5 2.5zm9.6-13.3l-4.7 8.9c1.6.8 2.7 2.5 2.7 4.4h10c0-5.8-3.2-10.8-8-13.3zm-9.4 8.8L8-28.3C3.2-25.8 0-20.8 0-15h10c0-2 1.1-3.6 2.7-4.5zm9.4 17.7l-4.7-8.9c-.7.5-1.5.7-2.4.7-.9 0-1.7-.2-2.4-.6L8-1.8C10.1-.6 12.5 0 15 0s5-.6 7.1-1.8zM84-57.4c0 1.4 1.1 2.5 2.5 2.5S89-56 89-57.4s-1.1-2.5-2.5-2.5-2.5 1.1-2.5 2.5zm9.6-13.2l-4.7 8.9c1.6.8 2.7 2.5 2.7 4.4h10c0-5.8-3.2-10.8-8-13.3zm-9.4 8.8l-4.7-8.9c-4.7 2.5-8 7.5-8 13.3h10c0-1.9 1.1-3.6 2.7-4.4zm9.4 17.7L88.9-53c-.7.4-1.5.6-2.4.6-.9 0-1.7-.2-2.4-.6l-4.7 8.9c2.1 1.1 4.5 1.8 7.1 1.8 2.6 0 5-.7 7.1-1.8zm-45.3 7.9c0 1.4 1.1 2.5 2.5 2.5s2.5-1.1 2.5-2.5-1.1-2.5-2.5-2.5-2.5 1.1-2.5 2.5zm9.6-13.3l-4.7 8.9c1.6.8 2.7 2.5 2.7 4.4h10c-.1-5.8-3.3-10.8-8-13.3zm-9.5 8.9l-4.7-8.9c-4.7 2.5-8 7.5-8 13.3h10c.1-1.9 1.2-3.6 2.7-4.4zm9.5 17.7l-4.7-8.9c-.7.4-1.5.6-2.4.6-.9 0-1.7-.2-2.4-.6l-4.7 8.9c2.1 1.1 4.5 1.8 7.1 1.8s5-.7 7.1-1.8zM12.5-57.4c0 1.4 1.1 2.5 2.5 2.5s2.5-1.1 2.5-2.5-1.1-2.5-2.5-2.5-2.5 1.1-2.5 2.5zm9.6-13.2l-4.7 8.9c1.6.8 2.7 2.5 2.7 4.4h10c0-5.8-3.2-10.8-8-13.3zm-9.4 8.8L8-70.6c-4.7 2.5-8 7.5-8 13.3h10c0-2 1.1-3.7 2.7-4.5zm9.4 17.7L17.4-53c-.7.4-1.5.6-2.4.6-.9 0-1.7-.2-2.4-.6L8-44.1c2.1 1.1 4.5 1.8 7.1 1.8s4.9-.7 7-1.8z"/></pattern><linearGradient id="a" gradientUnits="userSpaceOnUse" x1="639.5" y1="407.64" x2="639.5" y2="7.64"><stop offset="0" stop-color="#FFF"/><stop offset=".047" stop-color="#FCFBF8"/><stop offset=".236" stop-color="#F2EEE2"/><stop offset=".442" stop-color="#EBE4D2"/><stop offset=".676" stop-color="#E6DFC9"/><stop offset="1" stop-color="#E5DDC6"/></linearGradient><path fill="url(#a)" d="M0 7.6h1279v400H0z"/><path fill="#C8DCDB" d="M0 352.8l554.7 7.5L923.6 350l356.4 2.8-1-162.8-177.7-6.7-177.7 15.4L514 174.3 0 190M1280 82.4c-49.4 1.7-124.5 3.8-216 4.3-36.7.2-87.1.3-153.8-1.1-145.5-3-212.5-5.5-212.5-5.5-10.5-.4-36.6-1.3-71.7-.7-24 .4-41.6 1.5-51.8 2C545.7 83 503.8 85 447 86.7c-28.8 1.3-63.1 2.6-101.7 3.5-55.8 1.3-100.2 1.2-124.3.8-93.5-1.2-170.3-5.3-221-8.7V54.8s167.5 19.7 168.5-12.5c.3-9.5 6-31 15.5-31 31 0 32.6 1.1 95.6 1.3 37.4.5 9.3 43.6 43.7 53.3 5.6 1.6 10.1 2.1 12.4 2.1 36.8.6 74.9-5.1 74.9-5.1 12.4-1.9 11.2-.8 64-2 83.3-1.9 92.3-4.8 161.5-6.1 32.8-.6 16.4.3 93.9-.2 79.3-.5 103.7-1.5 142.7 2.1 8.1.8 18.2 1.9 33.4 2.6 33.8 1.7 57.9.1 74.9-.8 29.2-1.5 32.1-.3 95.5-.5 41.6-.1 105.6-.8 203.5-3.3v27.7z"/><path fill="#F3F0E6" d="M1281 215.8c-22.5-8-57.7-18.7-102-24.7-109.9-14.8-177.6 12.7-260.9 24.7-81.6 11.7-101.9-2.5-187.8-17.6-38.3-6.8-78.2-12.4-159.3-18.2-87.5-6.2-138.8-.1-340 17-50 4.2-129.8 10.9-230 18.8v-40.9c107.3 7.8 194.1 3.7 255-1.9 192.3-17.6 235-25 235-25 49.6-8.6 101.7-20 162-3 15.9 4.5 30.7 10.5 64.4 18.8 38.3 9.5 69.9 14.3 95.6 18.2 33.3 5 61.2 8 73 9.1 117.8 10.6 180.9-35.2 315-25.5 33.9 2.4 61.6 6.4 80 9.4v40.8z"/><path fill="#CBC1A1" d="M1280.8 378.1c-175.6-23.7-318.6-25.2-418-22-199.2 6.5-227.9 32.2-392 20-92.3-6.9-164.3-21-292-16-74.9 2.9-136.4 11.2-178 18v-30c32.4-6.5 80.4-14.7 139-19 144.7-10.5 229.4 12 336 22 143 13.3 157.6-11.6 368-20 102.4-4.1 251.9-4.2 437 17v30z"/><path fill="url(#b)" d="M1274 276.3c1 36.4-13.7 66.7-63 52-39.4-11.7-113.3-23.2-170.3-17.3-103.3 10.7-165.4 18.9-195 2.7-49.3-27-85-18.6-85-38.7 0-20.5 65.1-41 124.2-51.9 6-1.1 19.6 6.2 23.9-1 3-5 5.2-5.8 4.2-8.2-2.1-5.2-3.4-4.6-6.6-11.8-1.7-3.8-4-7.3-5.3-11.2-.3-.9-6.1-8.6-14.6-9.4-14.2-1.2-6.6-4-3.9-11.3 5.2-14.3 9.6-1.9 13.9-2.8 18.7-4-1.9 5.9 7.2 24.4.7 1.5 7.2 14.3 8.9 18.4.7 1.6 1.6 3.2 2.2 4.8.4.9.6 1.6 1.2 2.2 1 1 2.8 1.6 3.7 1.1 1.6-1-.5-6.1-1.9-13.6-1.6-8.8-1.2-15.7-1-15.8.2 0 .8 5.2 2.4 14.6 1.7 10.4 2.4 13.1 4.8 14.3 2.3 1.2 5.8.6 7.3-1.3 1.6-2.1-.2-4.4-2.5-13.6-2-8-2.2-9.1-3.6-11.6-1.4-2.7-12.3-4.3-12.7-8.9-.3-3.9 1.3-17.6 9.6-14.5 9.8 3.7 15.6 11.5 11 19.7-.5.8-4.2 2-5.3 5.1-.8 2.3.3 4.8 1.4 7.6 1.2 2.9 1.7 2.3 2.4 4.5 1.1 3.6 0 5.4 1.6 7.9.9 1.4 1.7 1.5 1.7 2.4.1 2.4 14.6.9 10-7.4-3.2-5.8-3-6.8-3-10.4 0-1.8.4-4.4-1.2-6.3-.7-.8-1.1-.5-1.8-1.3 0 0-1-1.3-.9-3.6.3-4.6 12-19.1 28.7-8.7 8.1 5.1 25.4-5.3 18.2 3.6-12.1 15-41.7 5.9-42.2 10.2 0 .2-.4 1.8.3 3.6 2.2 5.7.7 6.2 4.2 14.2 2.1 4.7 8.7 4.2 9.7 5.6 7.5 10.1 32.3-.4 60.5-.2 80.3.8 70.6-18.3 120.7-19.7 78.1-2.1 135.2 57.5 135.9 81.6z"/><path fill="#F0C876" d="M1274 276.3c1 36.4-13.7 66.7-63 52-39.4-11.7-113.3-23.2-170.3-17.3-103.3 10.7-165.4 18.9-195 2.7-49.3-27-85-18.6-85-38.7 0-20.5 65.1-41 124.2-51.9 6-1.1 19.6 6.2 23.9-1 3-5 5.2-5.8 4.2-8.2-2.1-5.2-3.4-4.6-6.6-11.8-1.7-3.8-4-7.3-5.3-11.2-.3-.9-6.1-8.6-14.6-9.4-14.2-1.2-6.6-4-3.9-11.3 5.2-14.3 9.6-1.9 13.9-2.8 18.7-4-1.9 5.9 7.2 24.4.7 1.5 7.2 14.3 8.9 18.4.7 1.6 1.6 3.2 2.2 4.8.4.9.6 1.6 1.2 2.2 1 1 2.8 1.6 3.7 1.1 1.6-1-.5-6.1-1.9-13.6-1.6-8.8-1.2-15.7-1-15.8.2 0 .8 5.2 2.4 14.6 1.7 10.4 2.4 13.1 4.8 14.3 2.3 1.2 5.8.6 7.3-1.3 1.6-2.1-.2-4.4-2.5-13.6-2-8-2.2-9.1-3.6-11.6-1.4-2.7-12.3-4.3-12.7-8.9-.3-3.9 1.3-17.6 9.6-14.5 9.8 3.7 15.6 11.5 11 19.7-.5.8-4.2 2-5.3 5.1-.8 2.3.3 4.8 1.4 7.6 1.2 2.9 1.7 2.3 2.4 4.5 1.1 3.6 0 5.4 1.6 7.9.9 1.4 1.7 1.5 1.7 2.4.1 2.4 14.6.9 10-7.4-3.2-5.8-3-6.8-3-10.4 0-1.8.4-4.4-1.2-6.3-.7-.8-1.1-.5-1.8-1.3 0 0-1-1.3-.9-3.6.3-4.6 12-19.1 28.7-8.7 8.1 5.1 25.4-5.3 18.2 3.6-12.1 15-41.7 5.9-42.2 10.2 0 .2-.4 1.8.3 3.6 2.2 5.7.7 6.2 4.2 14.2 2.1 4.7 8.7 4.2 9.7 5.6 7.5 10.1 32.3-.4 60.5-.2 80.3.8 70.6-18.3 120.7-19.7 78.1-2.1 135.2 57.5 135.9 81.6z"/><path fill="url(#b)" d="M1274 276.3c1 36.4-13.7 66.7-63 52-39.4-11.7-113.3-23.2-170.3-17.3-103.3 10.7-165.4 18.9-195 2.7-49.3-27-85-18.6-85-38.7 0-20.5 65.1-41 124.2-51.9 6-1.1 19.6 6.2 23.9-1 3-5 5.2-5.8 4.2-8.2-2.1-5.2-3.4-4.6-6.6-11.8-1.7-3.8-4-7.3-5.3-11.2-.3-.9-6.1-8.6-14.6-9.4-14.2-1.2-6.6-4-3.9-11.3 5.2-14.3 9.6-1.9 13.9-2.8 18.7-4-1.9 5.9 7.2 24.4.7 1.5 7.2 14.3 8.9 18.4.7 1.6 1.6 3.2 2.2 4.8.4.9.6 1.6 1.2 2.2 1 1 2.8 1.6 3.7 1.1 1.6-1-.5-6.1-1.9-13.6-1.6-8.8-1.2-15.7-1-15.8.2 0 .8 5.2 2.4 14.6 1.7 10.4 2.4 13.1 4.8 14.3 2.3 1.2 5.8.6 7.3-1.3 1.6-2.1-.2-4.4-2.5-13.6-2-8-2.2-9.1-3.6-11.6-1.4-2.7-12.3-4.3-12.7-8.9-.3-3.9 1.3-17.6 9.6-14.5 9.8 3.7 15.6 11.5 11 19.7-.5.8-4.2 2-5.3 5.1-.8 2.3.3 4.8 1.4 7.6 1.2 2.9 1.7 2.3 2.4 4.5 1.1 3.6 0 5.4 1.6 7.9.9 1.4 1.7 1.5 1.7 2.4.1 2.4 14.6.9 10-7.4-3.2-5.8-3-6.8-3-10.4 0-1.8.4-4.4-1.2-6.3-.7-.8-1.1-.5-1.8-1.3 0 0-1-1.3-.9-3.6.3-4.6 12-19.1 28.7-8.7 8.1 5.1 25.4-5.3 18.2 3.6-12.1 15-41.7 5.9-42.2 10.2 0 .2-.4 1.8.3 3.6 2.2 5.7.7 6.2 4.2 14.2 2.1 4.7 8.7 4.2 9.7 5.6 7.5 10.1 32.3-.4 60.5-.2 80.3.8 70.6-18.3 120.7-19.7 78.1-2.1 135.2 57.5 135.9 81.6z"/><g fill="#9E005D"><circle cx="1180.7" cy="256" r="3.8"/><circle cx="1143.1" cy="283.7" r="5.6"/><circle cx="1140.4" cy="257.7" r="1.8"/><circle cx="1156.5" cy="272.3" r="1.3"/><circle cx="1146.9" cy="273.2" r="1.3"/><circle cx="1164.3" cy="279.7" r="1.8"/><circle cx="1159" cy="284.9" r="3.8"/><circle cx="1168.3" cy="264" r="3.8"/><circle cx="1168.3" cy="289.5" r="3.8"/><circle cx="1150" cy="263.7" r="1.8"/><circle cx="1126.5" cy="259.3" r="3.8"/><circle cx="1162.3" cy="272.3" r="1.3"/><circle cx="1140.2" cy="270" r="1.3"/><circle cx="1168.6" cy="252.1" r="1.8"/><circle cx="1178.5" cy="275.2" r="5.2"/><circle cx="1243.5" cy="283.2" r="5.2"/><circle cx="1095.7" cy="248" r="3.8"/><circle cx="1058.1" cy="275.7" r="5.6"/><circle cx="1055.4" cy="249.7" r="1.8"/><circle cx="1039.6" cy="275.1" r="5.4"/><circle cx="1071.5" cy="264.3" r="1.3"/><circle cx="1061.9" cy="265.2" r="1.3"/><circle cx="1079.3" cy="271.7" r="1.8"/><circle cx="1074" cy="276.9" r="3.8"/><circle cx="1083.3" cy="256" r="3.8"/><circle cx="1083.3" cy="281.5" r="3.8"/><circle cx="1065" cy="255.7" r="1.8"/><circle cx="1041.5" cy="251.3" r="3.8"/><circle cx="1055.2" cy="262" r="1.3"/><circle cx="1083.6" cy="244.1" r="1.8"/><circle cx="1093.5" cy="267.2" r="5.2"/><circle cx="1245.7" cy="264" r="3.8"/><circle cx="1208.1" cy="291.7" r="5.6"/><circle cx="1205.4" cy="265.7" r="1.8"/><circle cx="1189.6" cy="291.1" r="5.4"/><circle cx="1221.5" cy="280.3" r="1.3"/><circle cx="1211.9" cy="281.2" r="1.3"/><circle cx="1229.3" cy="287.7" r="1.8"/><circle cx="1224" cy="292.9" r="3.8"/><circle cx="1233.3" cy="272" r="3.8"/><circle cx="1233.3" cy="297.5" r="3.8"/><circle cx="1215" cy="271.7" r="1.8"/><circle cx="1191.5" cy="267.3" r="3.8"/><circle cx="1227.3" cy="280.3" r="1.3"/><circle cx="1205.2" cy="278" r="1.3"/><circle cx="1233.6" cy="260.1" r="1.8"/><circle cx="1095.1" cy="289.7" r="5.6"/><circle cx="1076.6" cy="289.1" r="5.4"/><circle cx="1108.5" cy="278.3" r="1.3"/><circle cx="1098.9" cy="279.2" r="1.3"/><circle cx="1116.3" cy="285.7" r="1.8"/><circle cx="1111" cy="290.9" r="3.8"/><circle cx="1120.3" cy="270" r="3.8"/><circle cx="1120.3" cy="295.5" r="3.8"/><circle cx="1102" cy="269.7" r="1.8"/><circle cx="1077.5" cy="264.3" r="3.8"/><circle cx="1114.3" cy="278.3" r="1.3"/><circle cx="1092.2" cy="276" r="1.3"/><circle cx="1120.6" cy="258.1" r="1.8"/><circle cx="1130.5" cy="281.2" r="5.2"/><circle cx="1012.8" cy="289.6" r="1.8"/><circle cx="1042.2" cy="295.2" r="5.4"/><circle cx="1020.7" cy="269.3" r="1.3"/><circle cx="1024.9" cy="278" r="1.3"/><circle cx="1024.7" cy="259.3" r="1.8"/><circle cx="1031.5" cy="262.5" r="3.8"/><circle cx="1008.6" cy="261.3" r="3.8"/><circle cx="1032.5" cy="252.1" r="3.8"/><circle cx="1014.9" cy="278.5" r="1.8"/><circle cx="1019.3" cy="302" r="3.8"/><circle cx="1018.6" cy="263.9" r="1.3"/><circle cx="1024.3" cy="285.3" r="1.3"/><circle cx="997.4" cy="265.3" r="1.8"/></g><path fill="#89898A" d="M1280 15.2s-58-5.1-66.2-5.1c-90.7.5-221.2 2.3-306.5 2.2-78.7-.1-236-3.8-314.7-3.3-60.9.4-182.7 4.3-243.7 4.3-48.7 0-146-2.4-194.7-2C115.7 11.6 0 15.2 0 15.2V-.2h1280v15.4z"/></svg>