<?xml version="1.0" encoding="UTF-8" standalone="no"?>
<!-- Created with Inkscape (http://www.inkscape.org/) -->

<svg
   xmlns:dc="http://purl.org/dc/elements/1.1/"
   xmlns:cc="http://creativecommons.org/ns#"
   xmlns:rdf="http://www.w3.org/1999/02/22-rdf-syntax-ns#"
   xmlns:svg="http://www.w3.org/2000/svg"
   xmlns="http://www.w3.org/2000/svg"
   xmlns:sodipodi="http://sodipodi.sourceforge.net/DTD/sodipodi-0.dtd"
   xmlns:inkscape="http://www.inkscape.org/namespaces/inkscape"
   width="1280.0945"
   height="400.36221"
   viewBox="0 0 1280.0945 400.36222"
   id="svg3447"
   version="1.1"
   inkscape:version="0.91 r13725"
   sodipodi:docname="earth.svg">
  <defs
     id="defs3449" />
  <sodipodi:namedview
     id="base"
     pagecolor="#ffffff"
     bordercolor="#666666"
     borderopacity="1.0"
     inkscape:pageopacity="0.0"
     inkscape:pageshadow="2"
     inkscape:zoom="0.7"
     inkscape:cx="574.49819"
     inkscape:cy="101.7972"
     inkscape:document-units="px"
     inkscape:current-layer="layer1"
     showgrid="false"
     units="px"
     inkscape:window-width="1920"
     inkscape:window-height="1151"
     inkscape:window-x="84"
     inkscape:window-y="33"
     inkscape:window-maximized="0" />
  <metadata
     id="metadata3452">
    <rdf:RDF>
      <cc:Work
         rdf:about="">
        <dc:format>image/svg+xml</dc:format>
        <dc:type
           rdf:resource="http://purl.org/dc/dcmitype/StillImage" />
        <dc:title></dc:title>
      </cc:Work>
    </rdf:RDF>
  </metadata>
  <g
     inkscape:label="Layer 1"
     inkscape:groupmode="layer"
     id="layer1"
     transform="translate(0,-651.99996)">
    <rect
       style="fill:#898989;fill-opacity:1"
       id="rect3455"
       width="1284.2241"
       height="405.29346"
       x="-0.45866814"
       y="651.71851" />
    <rect
       style="fill:#898989;fill-opacity:1"
       id="rect3457"
       width="20.714285"
       height="15"
       x="28.214285"
       y="767.005" />
    <rect
       style="fill:#898989;fill-opacity:1"
       id="rect3459"
       width="26.785715"
       height="30.714285"
       x="60.357143"
       y="734.14789" />
    <path
       style="fill:#898989;fill-opacity:1"
       d="m -0.38194206,202.81647 0,-202.14285322 641.42857206,0 641.42857,0 0,202.14285322 0,202.14286 -641.42857,0 -641.42857206,0 0,-202.14286 z"
       id="path3461"
       inkscape:connector-curvature="0"
       transform="translate(0,651.99996)" />
    <path
       style="fill:#898989;fill-opacity:1"
       d="m -0.38194206,202.81647 0,-202.14285322 641.42857206,0 641.42857,0 0,202.14285322 0,202.14286 -641.42857,0 -641.42857206,0 0,-202.14286 z"
       id="path3463"
       inkscape:connector-curvature="0"
       transform="translate(0,651.99996)" />
    <path
       style="fill:#898989;fill-opacity:1"
       d="M -0.85813249,405.43552 C -1.3819421,404.91172 -1.8105135,313.30457 -1.8105135,201.86409 l 0,-202.61904465 642.8571435,0 642.85717,0 0,203.57142465 0,203.57143 -641.90478,0 c -353.04763,0 -642.33334306,-0.42857 -642.85715249,-0.95238 z"
       id="path3465"
       inkscape:connector-curvature="0"
       transform="translate(0,651.99996)" />
    <path
       style="fill:#e5ddc6;fill-opacity:1"
       d="m -1.8105135,202.81647 0,-203.57142465 642.8571435,0 642.85717,0 0,203.57142465 0,203.57143 -642.85717,0 -642.8571435,0 0,-203.57143 z"
       id="path3467"
       inkscape:connector-curvature="0"
       transform="translate(0,651.99996)" />
    <path
       style="fill:#cbc1a0;fill-opacity:1;fill-rule:evenodd;stroke:none;stroke-width:0.72703367px;stroke-linecap:butt;stroke-linejoin:miter;stroke-opacity:1"
       d="m 359.56097,789.24759 c 131.42857,0.71428 250.48436,-40.6456 443.76551,-44.68577 106.05841,3.03607 302.38392,59.226 378.27842,64.2379 77.5373,5.12038 193.4242,-47.89155 193.4242,-47.89155 l -4.1674,21.59001 c 0,0 -102.003,68.8942 -182.4795,62.82206 -85.8061,-4.0481 -281.79301,-64.1256 -391.58221,-75.25786 -532.90296,42.59421 -1000.67861,95.00644 -856.606385,-27.13094 28.912506,-38.17381 -76.158895,74.04997 -14.795501,29.54027 0,0 261.305716,26.06159 434.162866,16.77588 z"
       id="path4269"
       inkscape:connector-curvature="0"
       sodipodi:nodetypes="ccsccccccc" />
    <rect
       style="fill:#898989;fill-opacity:1;stroke:none;stroke-opacity:1"
       id="rect4290"
       width="1334.2858"
       height="21.428572"
       x="-35.714287"
       y="648.07642" />
  </g>
</svg>
