<?xml version="1.0" encoding="utf-8"?>
<!-- Generator: Adobe Illustrator 18.1.1, SVG Export Plug-In . SVG Version: 6.00 Build 0)  -->
<svg version="1.2" baseProfile="tiny" id="Layer_1" xmlns="http://www.w3.org/2000/svg" xmlns:xlink="http://www.w3.org/1999/xlink"
	 x="0px" y="0px" viewBox="0 0 1280 400" xml:space="preserve">
<rect id="Earth_Background" y="4" fill="#E5DDC6" width="1280" height="400"/>
<path id="dunkle_Gesteinsschicht_1_" fill="#CBC1A1" d="M1280,78.4c-49.4,1.7-124.5,3.8-216,4.3c-231.1,1.4-258.6-9-438-7.2
	c-188.9,1.9-217.6,14-405,11.6c-93.5-1.2-170.3-5.3-221-8.7c0-9.2,0-18.3,0-27.5c48.8,4.6,125.1,10.7,219,13
	c180,4.5,215.8-9.9,417-13c173.4-2.7,195.3,7.3,427,5.1c92.6-0.9,168.3-3.2,217-5.1C1280,60.1,1280,69.2,1280,78.4z"/>
<path id="helle_Gesteinsschicht" fill="#F3F0E6" d="M1281,211.8c-22.5-8-57.7-18.7-102-24.7c-109.9-14.8-177.6,12.7-260.9,24.7
	c-81.6,11.7-101.9-2.5-187.8-17.6C692,187.4,652.1,181.8,571,176c-87.5-6.2-138.8-0.1-340,17c-50,4.2-129.8,10.9-230,18.8
	c0-13.6,0-27.2,0-40.9c107.3,7.8,194.1,3.7,255-1.9c192.3-17.6,235-25,235-25c49.6-8.6,101.7-20,162-3c15.9,4.5,30.7,10.5,64.4,18.8
	c38.3,9.5,69.9,14.3,95.6,18.2c33.3,5,61.2,8,73,9.1c117.8,10.6,180.9-35.2,315-25.5c33.9,2.4,61.6,6.4,80,9.4
	C1281,184.5,1281,198.1,1281,211.8z"/>
<path id="dunkle_Gesteinsschicht" fill="#CBC1A1" d="M1279,342.2c-175.6-23.7-318.6-25.2-418-22c-199.2,6.5-227.9,32.2-392,20
	c-92.3-6.9-164.3-21-292-16c-74.9,2.9-136.4,11.2-178,18c0-10,0-20,0-30c32.4-6.5,80.4-14.7,139-19c144.7-10.5,229.4,12,336,22
	c143,13.3,157.6-11.6,368-20c102.4-4.1,251.9-4.2,437,17C1279,322.2,1279,332.2,1279,342.2z"/>
<rect id="Ground_Shape" y="-4.2" fill="#89898A" width="1280" height="15.4"/>
</svg>
