<svg xmlns="http://www.w3.org/2000/svg" viewBox="0 0 1280 400"><path fill="#D1D3B8" d="M-1.5 8.7h1280v391H-1.5z"/><path fill="#EDEDED" d="M302.1 180.3c15 0 27.1-12.2 27.1-27.2s-12.1-27.2-27.1-27.2c-3.2 0-6.3.6-9.2 1.6-2.5-20-19.6-35.5-40.3-35.5-9.8 0-18.7 3.4-25.7 9.2-8-11.7-21.5-19.3-36.8-19.3-9.1 0-17.6 2.7-24.6 7.3-6.4-33.9-36.2-59.6-72-59.6-16.8 0-32.2 5.6-44.5 15.1-4.5-6.9-12.1-11.4-20.8-11.4-2.4 0-4.7.3-6.9 1-6.5-12.9-20-21.8-35.7-21.8-7.2 0-13.9 1.9-19.7 5.1-5-18-21.5-31.2-41.1-31.2-23.5 0-42.6 19.1-42.6 42.6 0 5.6 1.1 10.9 3 15.7-3.3-.8-6.8-1.2-10.3-1.2-23.9 0-43.3 19.4-43.3 43.3 0 8.5 2.4 16.4 6.7 23.1-18.8.3-33.9 15.7-33.9 34.6 0 19.1 15.5 34.6 34.6 34.6l463.1 1.2zm1237 59c15 0 27.1-11.2 27.1-26.2s-12.1-27.2-27.1-27.2c-3.2 0-6.3.6-9.2 1.6-2.5-20-19.6-35.5-40.3-35.5-9.8 0-18.7 3.4-25.7 9.2-8-11.7-21.5-19.3-36.8-19.3-9.1 0-17.6 2.7-24.6 7.3-6.4-33.9-36.2-59.6-72-59.6-16.8 0-32.2 5.6-44.5 15.1-4.5-6.9-12.1-11.4-20.8-11.4-2.4 0-4.7.3-6.9 1-6.5-12.9-20-21.8-35.7-21.8-7.2 0-13.9 1.9-19.7 5.1-5-18-21.5-31.2-41.1-31.2-23.5 0-42.6 19.1-42.6 42.6 0 5.6 1.1 10.9 3 15.7-3.3-.8-6.8-1.2-10.3-1.2-23.9 0-43.3 19.4-43.3 43.3 0 8.5 2.4 16.4 6.7 23.1-18.8.3-33.9 15.7-33.9 34.6 0 19.1 15.5 34.6 34.6 34.6l463.1.2z"/></svg>