<svg version="1.2" baseProfile="tiny" xmlns="http://www.w3.org/2000/svg" viewBox="0 0 1280 400"><linearGradient id="a" gradientUnits="userSpaceOnUse" x1="639" x2="639" y2="400"><stop offset="0" stop-color="#FFF"/><stop offset=".063" stop-color="#FAFDFD"/><stop offset=".349" stop-color="#E8F5F7"/><stop offset=".653" stop-color="#DDF0F3"/><stop offset="1" stop-color="#DAEFF2"/></linearGradient><path fill="url(#a)" d="M-1 0h1280v400H-1z"/><path fill="#FFF" d="M401.1 176.3c15 0 27.1-12.2 27.1-27.2s-12.1-27.2-27.1-27.2c-3.2 0-6.3.6-9.2 1.6-2.5-20-19.6-35.5-40.3-35.5-9.8 0-18.7 3.4-25.7 9.2-8-11.7-21.5-19.3-36.8-19.3-9.1 0-17.6 2.7-24.6 7.3-6.4-33.9-36.2-59.6-72-59.6-16.8 0-32.2 5.6-44.5 15.1-4.5-6.9-12.1-11.4-20.8-11.4-2.4 0-4.7.3-6.9 1-6.5-12.9-20-21.8-35.7-21.8-7.2 0-13.9 1.9-19.7 5.1-5-18-21.5-31.2-41.1-31.2C.3-17.6-18.8 1.5-18.8 25c0 5.6 1.1 10.9 3 15.7-3.3-.8-6.8-1.2-10.3-1.2-23.9 0-43.3 19.4-43.3 43.3 0 8.5 2.4 16.4 6.7 23.1-18.8.3-33.9 15.7-33.9 34.6 0 19.1 15.5 34.6 34.6 34.6m1584.1 51.2c15 0 27.1-12.2 27.1-27.2s-12.1-27.2-27.1-27.2c-3.2 0-6.3.6-9.2 1.6-2.5-20-19.6-35.5-40.3-35.5-9.8 0-18.7 3.4-25.7 9.2-8-11.7-21.5-19.3-36.8-19.3-9.1 0-17.6 2.7-24.6 7.3-6.4-33.9-36.2-59.6-72-59.6-16.8 0-32.2 5.6-44.5 15.1-4.5-6.9-12.1-11.4-20.8-11.4-2.4 0-4.7.3-6.9 1-6.5-12.9-20-21.8-35.7-21.8-7.2 0-13.9 1.9-19.7 5.1-5-18-21.5-31.2-41.1-31.2-23.5 0-42.6 19.1-42.6 42.6 0 5.6 1.1 10.9 3 15.7-3.3-.8-6.8-1.2-10.3-1.2-23.9 0-43.3 19.4-43.3 43.3 0 8.5 2.4 16.4 6.7 23.1-18.8.3-33.9 15.7-33.9 34.6 0 19.1 15.5 34.6 34.6 34.6"/><path fill="#A0C48D" d="M13.4 392c-1.4-.6-.3-3.7-1.3-7.8-1.1-4.9-4-7.6-3.4-8 .4-.3 2.2.8 3.5 2.4 2.4 2.9 2.6 6.9 2.8 6.8.1 0 0-.2 0-.2-.1-2.1 1.1-8.3 1.5-10 1-4 3.3-7.1 3.8-7 .4.2-.8 3.1-1.4 8.2-.5 4.2-.2 8 .2 8 .2 0 .3-1.1 1.3-3.3.4-1 1.4-3.2 1.7-3.1.3.1-.8 2.8-.9 6.7-.1 4.1 1 6.1-.1 6.9-.9.6-1.9-.6-4.3-.3-2.1.1-2.6 1.1-3.4.7z"/><path fill="#A8C95C" d="M26.9 392c1-.4.2-2.6.9-5.7.8-3.5 2.9-5.4 2.5-5.8-.3-.3-1.6.6-2.5 1.7-1.7 2.1-1.9 4.9-2 4.9v-.2c.1-1.5-.8-6-1.1-7.2-.7-2.9-2.4-5.1-2.7-5-.3.1.6 2.2 1 5.9.3 3 .2 5.8-.1 5.8-.2 0-.3-.8-.9-2.4-.3-.7-1-2.3-1.2-2.3-.2.1.6 2 .6 4.8.1 2.9-.7 4.4.1 4.9.6.5 1.3-.4 3.1-.2 1.4.4 1.7 1.1 2.3.8zm91.3 0c.9-.4.2-2.3.8-4.9.7-3.1 2.5-4.7 2.1-5-.3-.2-1.4.5-2.2 1.5-1.5 1.8-1.6 4.3-1.8 4.3v-.2c.1-1.3-.7-5.2-.9-6.3-.6-2.5-2.1-4.5-2.4-4.4-.3.1.5 1.9.9 5.1.3 2.7.1 5-.1 5-.1 0-.2-.7-.8-2.1-.2-.6-.9-2-1.1-2-.2.1.5 1.7.5 4.2.1 2.5-.6 3.8.1 4.3.6.4 1.2-.4 2.7-.2 1.3.3 1.6 1 2.2.7z"/></svg>