<?xml version="1.0" encoding="utf-8"?>
<!-- Generator: Adobe Illustrator 18.1.1, SVG Export Plug-In . SVG Version: 6.00 Build 0)  -->
<svg version="1.2" baseProfile="tiny" id="Layer_1" xmlns="http://www.w3.org/2000/svg" xmlns:xlink="http://www.w3.org/1999/xlink"
	 x="0px" y="0px" viewBox="0 0 1280 400" xml:space="preserve">
<rect id="Sky_Background" x="-2" fill="#E6EFE3" width="1285.5" height="400"/>
<g id="Cloud_1">
	<path fill="#FFFFFF" d="M400.1,249.3c15,0,27.1-12.2,27.1-27.2c0-15-12.1-27.2-27.1-27.2c-3.2,0-6.3,0.6-9.2,1.6
		c-2.5-20-19.6-35.5-40.3-35.5c-9.8,0-18.7,3.4-25.7,9.2c-8-11.7-21.5-19.3-36.8-19.3c-9.1,0-17.6,2.7-24.6,7.3
		c-6.4-33.9-36.2-59.6-72-59.6c-16.8,0-32.2,5.6-44.5,15.1c-4.5-6.9-12.1-11.4-20.8-11.4c-2.4,0-4.7,0.3-6.9,1
		c-6.5-12.9-20-21.8-35.7-21.8c-7.2,0-13.9,1.9-19.7,5.1c-5-18-21.5-31.2-41.1-31.2c-23.5,0-42.6,19.1-42.6,42.6
		c0,5.6,1.1,10.9,3,15.7c-3.3-0.8-6.8-1.2-10.3-1.2c-23.9,0-43.3,19.4-43.3,43.3c0,8.5,2.4,16.4,6.7,23.1
		c-18.8,0.3-33.9,15.7-33.9,34.6c0,19.1,15.5,34.6,34.6,34.6"/>
</g>
<g id="Cloud_2">
	<path fill="#FFFFFF" d="M1566.1,227.3c15,0,27.1-12.2,27.1-27.2c0-15-12.1-27.2-27.1-27.2c-3.2,0-6.3,0.6-9.2,1.6
		c-2.5-20-19.6-35.5-40.3-35.5c-9.8,0-18.7,3.4-25.7,9.2c-8-11.7-21.5-19.3-36.8-19.3c-9.1,0-17.6,2.7-24.6,7.3
		c-6.4-33.9-36.2-59.6-72-59.6c-16.8,0-32.2,5.6-44.5,15.1c-4.5-6.9-12.1-11.4-20.8-11.4c-2.4,0-4.7,0.3-6.9,1
		c-6.5-12.9-20-21.8-35.7-21.8c-7.2,0-13.9,1.9-19.7,5.1c-5-18-21.5-31.2-41.1-31.2c-23.5,0-42.6,19.1-42.6,42.6
		c0,5.6,1.1,10.9,3,15.7c-3.3-0.8-6.8-1.2-10.3-1.2c-23.9,0-43.3,19.4-43.3,43.3c0,8.5,2.4,16.4,6.7,23.1
		c-18.8,0.3-33.9,15.7-33.9,34.6c0,19.1,15.5,34.6,34.6,34.6"/>
</g>
</svg>
