<?xml version="1.0" encoding="utf-8"?>
<!-- Generator: Adobe Illustrator 18.1.1, SVG Export Plug-In . SVG Version: 6.00 Build 0)  -->
<svg version="1.2" baseProfile="tiny" id="Layer_1" xmlns="http://www.w3.org/2000/svg" xmlns:xlink="http://www.w3.org/1999/xlink"
	 x="0px" y="0px" viewBox="0 0 200 562.7" xml:space="preserve">
<path id="Rohre" fill="#2C5364" d="M116.4,549c0,0-8.1,0.5-9.7-1c-1.6-1.6-1.5-9.6-1.5-9.6L103.5,319h29c0-17-12.9-31.2-29.3-33
	l-0.2-11V45h-6v240.6C80,287.1,66.5,301,66.5,319h30.2L97,545.6c0,0,0,6.8,1.9,8.7s8.7,1.7,8.7,1.7l58.4-0.3v-7L116.4,549z"/>
<path id="Turm" fill="#89898A" d="M85,6v15H58v14h6.9l-45,283h7.1l7.8-49h63.9h2.6h64l7.8,49h6.8L135.2,35h5.8V21h-27V6 M142.9,144
	l-42.8,43.9l-6.1-6.1L57.2,144H142.9z M143,134H57.1L100,87.5 M103,83.2l28-28.7l8.1,66.6 M100.5,80.9L69.5,49.8l0.3-1.8h28.8h2.6
	h28.9l0.3,1.7 M57.4,126.3l11.3-71.2l28.4,28.5 M54,148.2l42.1,43.2l-58.5,60.1L54,148.2z M101.3,255h-2.6H41.4l58.8-60.9l6.9,7.1
	l51.5,53.9H101.3z M104.6,190.7l41.6-42.7l16.4,103.3L104.6,190.7z"/>
</svg>
