<svg xmlns="http://www.w3.org/2000/svg" viewBox="0 0 285.1 586"><g fill="#A19696"><path d="M161.9 294.5h24.7v1.8h-24.7zm0 4.6h24.7v1.8h-24.7z"/><path d="M184.1 210.6V312h-4V211c0-4.3-2.1-7-6-7h-39.7c-2.4 0-4.4 1.6-4.4 4.4V312h-4V208.6c0-4.7 3.9-8.6 8.6-8.6H174c6.6 0 10.1 4.2 10.1 10.6z"/><path d="M168.1 312v-66.9c0-3.8.6-6.1 5.1-6.1h27.4c4.4 0 6.5 2.1 6.5 6.1V312h4v-66.6c0-6.6-2.9-10.4-10.3-10.4h-28.6c-5 0-8.1 4-8.1 10.1V312h4z"/></g><g fill="#CD5961"><path d="M259.8 289.3h-73.4c-7.2 0-11.1-5.8-11.1-13.1V268c0-7.2 3.8-13.1 11.1-13.1h73.4c7.2 0 11.3 5.8 11.3 13.1v8.2c-.1 7.2-4.1 13.1-11.3 13.1z"/><path d="M262.1 269v5h14c2.4 0 4 1.8 4 4.3V586h5V278.3c0-4.2-2.4-9.3-8.2-9.3h-14.8zm-85 6.2h-51v-5.3l51-.1"/></g><path fill="#CD5961" d="M112.1 312c0-18-9.1-32.4-32-32.4s-34 15.5-34 32.4h66z"/><path fill="none" stroke="#CD5961" stroke-width="5" stroke-miterlimit="10" d="M79.6 31v255m0 20v255"/><path fill="none" stroke="#B24258" stroke-width="5" stroke-miterlimit="10" d="M79.6 31v25m0 23v14m0 39v19m0 33v16m0 54v17"/><path fill="#B24258" d="M271.1 269h5v5h-5z"/><circle fill="#A19696" cx="165.7" cy="272.8" r="5.9"/><circle fill="#827979" cx="165.7" cy="272.8" r="3.2"/><circle fill="#A19696" cx="127.7" cy="272.8" r="5.9"/><path fill="#5F6068" d="M65.1 0v15h-27v14H45L0 312h7.1l7.8-49h130.5l7.8 49h6.8L115.3 29h5.8V15h-27V0h-29zm57.8 138l-42.8 43.9-6.1-6.1L37.2 138h85.7zm.2-10H37.2l42.9-46.5 43 46.5zM83 77.8l28.3-30.5 10 70.7L83 77.8zm-3-3.9L49.8 42h60.3L80 73.9zm-42.5 46.4L49 47.6 76.5 78l-39 42.3zM34 142.2l42.1 43.2-58.5 60.1L34 142.2zM81.4 249h-60l58.5-60.7 58.7 60.7H81.4zm2.5-64l42.4-43 16.4 103.3L83.9 185z"/></svg>