<svg version="1.2" baseProfile="tiny" xmlns="http://www.w3.org/2000/svg" viewBox="0 0 123.9 155.7"><path fill="#CBC1A1" d="M108.6 53.6h-5v45h-89V53.9l109.3-1-14-44.8-9.2-8.1-44.4 1.4-40.9 4.7-9.5 16.4L0 54.1l9.6-.1v44.6h-5v56h111v-56h-7"/><path fill="#A67C52" d="M59.9 53.5h.7V62h-.7z"/><path fill="gray" d="M59.6 62.1c-5.1.1-8.1 3.5-8.6 7.5h-2.5v15.2s3.1 2 11.5 2c8.3 0 11.5-2 11.5-2V69.6h-1.9c-.5-4-3.9-7.1-7.4-7.3m-10.1 7.3c.5-4 3.7-6.8 8.1-6.8 4.3 0 8.2 2.8 8.7 6.8H52.1z"/><path fill="#A67C52" d="M10.1 54h4.7v43.1h-4.7zm98.4 43.8h-6V53.1h6"/><path fill="#CCC" d="M113.2 98.7l-4.5-.5-15.5.3-6.5-.5-9 .9-7.5-1.4-52.9.7-11.9-.7 1.1 6.9-.6 11.8-.9 3.5.4 34.8 107.6-.3 1.4-1.7-.5-49.4"/><path fill="gray" d="M19.4 114.5l-10.6.3c-3.3 0-4.8-4.7-4.8-8l.8-1.7c0-3.3 3.3-3.1 6.6-3.1H14c3.3 0 7 1.2 7 4.5l1.4 1.4c.1 3.4.3 6.6-3 6.6z"/><path fill="#999" d="M45 121.2h-8.7c-3.5 0-6.3-2.8-6.3-6.3 0-3.4 2.8-6.3 6.3-6.3H45c2 0 5 2.5 5 2.5s1.3 2.4 1.3 3.8c0 1.7-.7 3.2-1.7 4.3-1.2 1.3-2.8 2-4.6 2zm-10.5 14.3h-14c-3.4 0-6.1-2.7-6.1-6 0-1.5 1-4 1-4s3.3-2 5.1-2h14.1c1.6 0 11.2-.3 11.2-.3s-1.9 4.9-1.9 6.6l1 2.5c0 1.6-2.4 3.2-2.4 3.2h-8z"/><path fill="#F2F2F2" d="M62.1 136.5H53c-4 0-7.3-3.3-7.3-7.3 0-1.8 2.3-5.8 2.3-5.8s2.8-1.5 5-1.5h9.1c4 0 7.3 3.3 7.3 7.3 0 2.3-.8 6.3-.8 6.3s-4.8 1-6.5 1z"/><path fill="#4D4D4D" d="M71.9 114H61.2c-1.8 0-5.1-.2-6.3-1.5-1-1.1 0-3.2 0-4.8 0-1.5.6-3.8 1.5-4.9 1.2-1.3 3-1 4.9-1l5.9-.6 3.8-.4c1.3 0 4.4 1.1 5.4 1.8 1.7 1.1 1.7 3 1.7 5.1 0 1.6.3 4-.6 5.1-1.1 1.5-3.7 1.2-5.6 1.2z"/><path fill="#999" stroke="#B3B3B3" stroke-miterlimit="10" d="M80.7 125.4h-6.9c-2.3 0-4.3-1.9-4.3-4.2 0-2.3 1.9-4.2 4.3-4.2h6.9c2.3 0 6.3.3 6.3 2.6l-2.4 3.2c0 2.4-1.6 2.6-3.9 2.6z"/><path fill="#999" d="M65.1 121.6h-10c-1.7 0-4.8-.5-4.8-2.2l2.3-1.3c0-1.7.8-2.8 2.5-2.8h10c1.7 0 4.4.4 4.4 2.1l-1 2.8c0 1.8-1.7 1.4-3.4 1.4z"/><path fill="#B3B3B3" d="M31.4 109.2l-4.1 1.4c-1.6 0-5.3-3.6-5.3-5.2l1.1-1.8c0-1.6 2.9-1.9 4.5-1.9h6.7c1.6 0 3.9 1.6 3.9 3.2l-.9 1.4c0 1.5-4.3 2.9-5.9 2.9z"/><path fill="#999" d="M47.5 107.5l-2.5.1c-2.5 0-5.9.3-5.9-2.2V103c-.5-1-1-3-.2-3.8s3.5-.7 4.7-.7h3.9c2.5 0 4.4 1 4.4 3.5l1.9 1c0 1.2-1.1 3.2-1.8 4-.8 1-3.2.5-4.5.5z"/><path fill="#E6E6E6" d="M25.7 121.9l-6.7-.1-6.4-1.1c-1.8 0-6.9 2.8-6.9 1L5 118c0-1.8 4-2.6 5.8-2.6l9.3-.5 7.1-2.1c1.8 0 3 4.1 3 5.9l-.3 1.8c.1 1.8-2.4 1.4-4.2 1.4z"/><path fill="#4D4D4D" d="M99.5 137.2l-25 1.3c-3.1 0-5 .7-5-2.4l1.3-5.7c0-3 3.3-3.3 6.4-3.3l22.3-.9c3.1 0 5.6 2.5 5.6 5.5-.1 3-2.6 5.5-5.6 5.5z"/><path fill="#B3B3B3" d="M97.7 116.9H84.6c-1.5 0-2.7-1.2-2.7-2.8v-.9c0-1.5 1.2-2.8 2.7-2.8h13.2c1.5 0 2.8 1.2 2.8 2.8v.9c-.1 1.5-1.4 2.8-2.9 2.8z"/><path fill="#CCC" d="M95.7 125.1h-4.9c-1.9 0-4.8 1.9-4.8 0v-1.9c0-1.9 2.8-5 4.8-5h4.9c1.9 0 2.6 1.6 2.6 3.5l.3 1.2c-.1 1.8-1 2.2-2.9 2.2z"/><path fill="#999" d="M111.6 126.2h-6.9c-1.8 0-4.9-1.3-4.9-1.3s-.8-2.9-.8-4.1l-.1-.7c0-1.3.4-2.9.4-2.9s3.8-1.7 5.5-1.7l8.3.1s4.1 2.3 4.1 5.3c0 2.3-3.5 5.1-3.5 5.1s-1.4.2-2.1.2zm-7.3-16.2H86.1c-1.6 0-4.9-.7-4.9-.7s-.4-3.3-.4-4.6c0-.8-1.2-3-1.2-3s-.2-1.6 1.3-1.8c1.8-.2 4.1-.5 5.2-.5h18.2c2.9 0 5.3 2.4 5.3 5.2 0 3-2.4 5.4-5.3 5.4z"/><path fill="#B3B3B3" d="M31.8 147.4l-18.5 1.5c-3 0-8.6-2-8.6-5l.3-4.3c0-3 5-3.1 8-3.1h18.8c3 0 7.1 2.5 7.1 5.5l-1 3.4c0 3-3.1 2-6.1 2z"/><path fill="#999" d="M61.5 148.4H46.3c-3.1 0-7-1.5-7-4.6l.7-3.4c0-3.1 3.1-3.2 6.2-3.2l14.8.9c3.1 0 7.3-1.4 7.3 1.7l-1.2 3.1c0 3-2.5 5.5-5.6 5.5zm22.6 1.2H74c-3.2 0-6.9-.6-6.9-3.8l1.1-3.3c0-3.2 3.1-2.3 6.3-2.3l9.5-2.1c3.2 0 7.4 4 7.4 7.1l-1 .6c.2 3.2-3.1 3.8-6.3 3.8z"/><path fill="#333" d="M107.9 145.8H96.1c-2 0-4.9-1.6-4.9-3.6l.4-2c0-2 2.5-1.7 4.6-1.7H108c2 0 5.4 1.6 5.4 3.6l-1.8 2c0 2.1-1.7 1.7-3.7 1.7z"/><path fill="#999" d="M111.9 151.9l-8.6-.7c-1.3 0-5.9-1.5-5.9-2.8l-3.5-1.4c0-1.3 8.1-.5 9.4-.5h12c1.3 0 .7 1.8.7 3.1l-.3 1.7c2.3.5-2.5.6-3.8.6z"/><path fill="#4D4D4D" d="M41.6 153.2H32c-1.4 0-3.5-.4-3.5-1.8l-2-.8c0-1.4 4-2.6 5.5-2.6h9.5c1.4 0 3.5 2 3.5 3.4l-.9.6c.1 1.4-1.1 1.2-2.5 1.2z"/><path fill="#999" d="M113.7 115.1h-10.5l-2.4.5s.4-1.2.4-1.4l.3-1.5c0-.4-1.6-2.3-1.6-2.3h5.4s5.6-1.8 6.7.9l1.7.8c.8 0 1.5.7 1.5 1.5 0 .3-.1.7-.3.9-.3.4-.8.6-1.2.6z"/><path fill="#B3B3B3" d="M111.9 137.2h-2.7c-2.2 0-2.7-1.8-2.7-4s.9-5.1 3.1-5.1l2.3 1.1c2.2 0 4 1.8 4 4s-1.8 4-4 4z"/><path fill="#666" d="M11.2 135.5H8.7c-3 0-5.2-1.2-5.2-4.1l.4-3.2c0-3 1.3-3.8 4.3-3.8l1-1.6c3 0 4 1.9 4 4.9l.7 4.7c.1 2.9.3 3.1-2.7 3.1z"/><path fill="#999" d="M14.2 101.4H6.1c-.6 0-1.5-.6-1.5-.6s-.7-1-.7-1.6c0-.6 1.2-1.4 1.2-1.4s.4-.8 1-.8h8.1c.7 0 1.7.8 1.7.8s.5.8.5 1.3-.4 1.3-.4 1.3-1.1 1-1.8 1zm49.6-.5l-2.6-.4-2.9.4h-4.7c-.7 0-1.2-.7-1.2-.7s-1.2-1.1-1.2-1.6c0-.6.3-1.8.3-1.8s1.4-.5 2.1-.5l4.5.5 2.9-.5h2.8c.6 0 1.6.6 1.6.6s.7 1 .7 1.7c0 .5-.9 1.2-.9 1.2s-.7 1.1-1.4 1.1zm-31.5.6l-2.6-.4-2.9.4h-5.9l-.4.5-.7-.2s0-.3.1-.6c.1-.4.1-.9.1-1-.2-.3-.2-.8-.2-1 0-.6.3-1.8.3-1.8s1.4-.5 2.1-.5l4.5.5 2.9-.5h2.8c.6 0 1.6.6 1.6.6s.7 1 .7 1.7c0 .5-.9 1.2-.9 1.2s-.8 1.1-1.5 1.1zM66 154h-9.5c-1.4 0-4-.5-4-1.9l-1.2-.9c0-1.4 3.8-2.3 5.2-2.3H66c1.4 0 4 1.2 4 2.6l-1 .9c0 1.3-1.6 1.6-3 1.6zm35.3.2h-12c-1.3 0-7.5-1-7.5-2.3l3.4-.5c0-1.3 2.8-1.8 4.1-1.8l9.5.7c1.3 0 2 .4 2 1.7l1.9.5c.1 1.2-.1 1.7-1.4 1.7z"/><path fill="#666" d="M69.5 99.8l2.6-.4 2.9.4h4.7c.7 0 1.2-.7 1.2-.7s1.2-1.1 1.2-1.6c0-.6-.3-1.8-.3-1.8s-1.4-.5-2.1-.5l-4.5.5-2.9-.5h-2.8c-.6 0-1.6.6-1.6.6s-.7 1-.7 1.7c0 .5.9 1.2.9 1.2s.6 1.1 1.4 1.1z"/><path fill="#A0C48D" d="M111.1 155.6c-1.7-.7-.4-4.5-1.6-9.7-1.3-6-4.9-9.3-4.2-9.9.5-.4 2.8 1 4.3 2.9 2.9 3.6 3.2 8.5 3.5 8.4.1 0 .1-.3.1-.3-.1-2.6 1.3-10.2 1.8-12.4 1.2-5 4.1-8.8 4.7-8.6.5.2-1 3.8-1.7 10.1-.6 5.2-.3 9.9.2 9.9.3 0 .4-1.4 1.5-4.1.5-1.2 1.7-4 2.1-3.9.4.1-.9 3.4-1.1 8.3-.1 5 1.2 7.5-.1 8.5-1.1.8-2.3-.7-5.4-.3-2.5.3-3.1 1.5-4.1 1.1z"/><path fill="#A8C95C" d="M104.4 155.6c1.3-.6.3-3.4 1.2-7.3 1-4.5 3.7-7 3.2-7.4-.4-.3-2.1.7-3.3 2.2-2.2 2.7-2.4 6.3-2.6 6.3-.1 0 0-.2 0-.2.1-1.9-1-7.7-1.4-9.3-.9-3.7-3.1-6.6-3.5-6.4-.4.1.8 2.8 1.3 7.6.4 3.9.2 7.4-.1 7.4-.2 0-.3-1.1-1.2-3.1-.4-.9-1.3-3-1.6-2.9-.3.1.7 2.6.8 6.2.1 3.7-.9 5.6.1 6.4.8.6 1.7-.5 4-.2 1.9.1 2.3 1.1 3.1.7z"/><path fill="#C69C6D" d="M41.3 36.7h-8.1c-2.6 0-4.7-2.1-4.7-4.7v-1.5c0-2.6 2.1-4.7 4.7-4.7h8.1c2.6 0 4.7 2.1 4.7 4.7V32c0 2.6-2.1 4.7-4.7 4.7z"/><path fill="#754C24" d="M64.7 18.6h-11c-2.3 0-4.2-1.9-4.2-4.2V13c0-2.3 1.9-4.2 4.2-4.2h11c2.3 0 4.2 1.9 4.2 4.2v1.4c0 2.3-1.9 4.2-4.2 4.2z"/><path fill="#A67C52" d="M77.8 36.7h-6.7c-1.9 0-3.4-1.5-3.4-3.4v-1.1c0-1.9 1.5-3.4 3.4-3.4h6.7c1.9 0 3.4 1.5 3.4 3.4v1.1c0 1.8-1.6 3.4-3.4 3.4z"/><path fill="#C69C6D" d="M100.2 20.8h-9.1c-2.3 0-4.2-1.9-4.2-4.2v-1.4c0-2.3 1.9-4.2 4.2-4.2h9.1c2.3 0 4.2 1.9 4.2 4.2v1.4c0 2.3-1.9 4.2-4.2 4.2z"/><path fill="#8C6239" d="M62.8 29.8h-9.7c-1.4 0-2.5-1.1-2.5-2.5v-.8c0-1.4 1.1-2.5 2.5-2.5h9.7c1.4 0 2.5 1.1 2.5 2.5v.8c-.1 1.4-1.2 2.5-2.5 2.5z"/></svg>