<svg xmlns="http://www.w3.org/2000/svg" viewBox="0 0 128.3 166.7"><g fill="#CD5961"><path d="M53.5 84.5c0-6.8 4.7-10.5 11.2-10.5 6.4 0 11.2 3.8 11.2 10.5H79c0-6.7-3.6-13.4-14.4-13.4-9 0-14.3 6.4-14.3 13.4h3.2z"/><path d="M52.7 82l2 22h20l2-22h-24z"/></g><path fill="#768CA3" d="M111.9 111.2h-6l-.1-54.7h6.1m-88.3 54.7h-6.1V56.5h6"/><path fill="#5F6068" d="M111.9 79.8h-6l-.1-23.3h6.1M23.6 79.8h-6.1V56.5h6M0 107.3h128.3v59.3H0z"/><path fill="#768CA3" d="M128.3 59.3H0L16 0h96.3"/><path fill="#434449" d="M27.1 130.4H13.4c-1.6 0-2.9-1.3-2.9-2.9v-4.1c0-1.6 1.3-2.9 2.9-2.9h13.7c1.6 0 2.9 1.3 2.9 2.9v4.1c0 1.6-1.3 2.9-2.9 2.9zm7.8 12.8H21.1c-1.6 0-2.9-1.3-2.9-2.9v-4.1c0-1.6 1.3-2.9 2.9-2.9h13.7c1.6 0 2.9 1.3 2.9 2.9v4.1c0 1.6-1.3 2.9-2.8 2.9zm15.8-13.1H37c-1.6 0-2.9-1.3-2.9-2.9v-4.1c0-1.6 1.3-2.9 2.9-2.9h13.7c1.6 0 2.9 1.3 2.9 2.9v4.1c0 1.6-1.3 2.9-2.9 2.9z"/><path fill="none" stroke="#B24258" stroke-width="2" stroke-miterlimit="10" d="M64.7 77V59"/><path fill="none" stroke="#4A4B57" stroke-width="2" stroke-miterlimit="10" d="M18.7 35h11m-3-8h11m-3 10h11m-19 10h11"/></svg>