<svg version="1.2" baseProfile="tiny" xmlns="http://www.w3.org/2000/svg" viewBox="0 0 236.7 91.4"><path d="M22.7 41.3c-3.5 0-5.3 1.2-6.7 2.7-1.6-1.9-3.1-2.7-5.9-2.7-2.2 0-3.7.8-4.6 1.9v-1.4H0V63h5.5V51.4c0-3.7 1.1-4.8 3.4-4.8s3.4 1.1 3.4 4.9V63h5.6V51.4c0-3.7 1.1-4.8 3.4-4.8s3.4 1.1 3.4 4.9V63h5.6V51c0-5.9-2.2-9.7-7.6-9.7z"/><path fill-rule="evenodd" d="M49.9 63V48.8c0-4.8-3.5-7.4-8.7-7.4-3.5 0-5.5.7-8 2.1l2.2 3.9c2-1.1 3.3-1.4 5.9-1.4 2 0 3.1 1.2 3.1 2.7v1.1c-.9-.4-2.2-.8-4.1-.8-4.9 0-8.7 2.3-8.7 7 0 5.1 4 7.6 8 7.6 2 0 3.8-.8 4.8-1.9V63h5.5zm-5.6-6.2c-.6 1-2.1 1.9-3.9 1.9-2.4 0-3.3-1.3-3.3-2.8 0-1.7 1.1-2.7 3.3-2.7 2 0 2.9.3 3.9.9v2.7zM70 59.4V41.8h-5.6V43c-1-.9-2.6-1.7-4.5-1.7-5.3 0-8.3 4.4-8.3 10.8 0 7.9 3.8 11.3 8.3 11.3 2 0 3.5-.8 4.5-1.8 0 3.3-1.2 4.3-5.6 4.9l2 4.2c7.4-.7 9.2-4.3 9.2-11.3zm-5.7-3c-.8 1.1-1.7 1.8-3.5 1.8-2.2 0-3.7-1.8-3.7-6.2 0-3.6 1.2-5.4 3.3-5.4 1.6 0 2.9.6 3.8 1.8v8h.1z"/><path fill="none" d="M11.5 18.1c-.8-1.2-2.1-1.8-3.8-1.8-2.1 0-3.3 1.9-3.3 5.4 0 4.4 1.5 6.2 3.6 6.2 1.7 0 2.6-.7 3.4-1.8v-8zm65.4 37.8c0 1.5.9 2.8 3.3 2.8 1.8 0 3.3-.9 3.9-1.9v-2.7c-1-.6-1.9-.9-3.9-.9-2.1 0-3.3 1-3.3 2.7z"/><path d="M81 41.3c-3.5 0-5.5.7-8 2.1l2.2 3.9c2-1.1 3.3-1.4 5.9-1.4 2 0 3.1 1.2 3.1 2.7v1.1c-.9-.4-2.2-.8-4.1-.8-4.9 0-8.7 2.3-8.7 7 0 5.1 4 7.6 8 7.6 2 0 3.8-.8 4.8-1.9V63h5.6V48.8c-.1-4.8-3.6-7.5-8.8-7.5zm3.1 15.5c-.6 1-2.1 1.9-3.9 1.9-2.4 0-3.3-1.3-3.3-2.8 0-1.7 1.1-2.7 3.3-2.7 2 0 2.9.3 3.9.9v2.7zM6 36.3l2 4.2c7.4-.8 9.1-4.4 9.1-11.4V11.5h-5.6v1.2c-1-.9-2.6-1.7-4.5-1.7-3.3 0-5.7 1.8-7 4.7v12.7c1.4 3.3 4.1 4.7 7 4.7 2 0 3.4-.8 4.5-1.8 0 3.3-1.2 4.4-5.5 5zm2.1-8.4c-2.2 0-3.6-1.8-3.6-6.2 0-3.6 1.2-5.4 3.3-5.4 1.6 0 2.9.6 3.8 1.8v8c-.9 1.1-1.8 1.8-3.5 1.8z"/><path fill-rule="evenodd" d="M50.7 22.1c0-6.1-3.3-11.1-8.9-11.1-5.4 0-9.4 4.6-9.4 11.1 0 6.7 3.9 11 10 11 2.8 0 5.9-1.3 7.6-3.4l-4-3.3c-.8.9-2.1 1.5-3.6 1.5-2 0-4.2-1.1-4.4-4h12.7v-1.8zm-5.4-2.4H38c.2-2.1 1.5-3.8 3.5-3.8 2.5 0 3.7 1.9 3.8 3.8zm25 2.4C70.3 16 67 11 61.4 11 56 11 52 15.6 52 22.1c0 6.7 3.9 11 10 11 2.8 0 5.9-1.3 7.6-3.4l-4-3.3c-.8.9-2.1 1.5-3.6 1.5-2 0-4.2-1.1-4.4-4h12.7c-.1-.4 0-1 0-1.8zm-5.4-2.4h-7.3c.2-2.1 1.5-3.8 3.5-3.8 2.5 0 3.6 1.9 3.8 3.8zm45.4 2.7c0-7.9-3.7-11.3-8.2-11.3-2 0-3.4.8-4.5 1.8v-1.3H92v29l5.6-2.8v-6.2c1 .9 2.6 1.7 4.5 1.7 5.2-.2 8.2-4.6 8.2-10.9zm-5.7.1c0 3.6-1.2 5.4-3.3 5.4-1.6 0-2.9-.6-3.8-1.8v-8c.8-1.1 1.7-1.8 3.4-1.8 2.3 0 3.7 1.8 3.7 6.2zm25.3-.4c0-6.1-3.3-11.1-8.9-11.1-5.4 0-9.4 4.6-9.4 11.1 0 6.7 3.9 11 10 11 2.8 0 5.9-1.3 7.6-3.4l-4-3.3c-.8.9-2.1 1.5-3.6 1.5-2 0-4.2-1.1-4.4-4h12.7v-1.8zm-5.4-2.4h-7.3c.2-2.1 1.5-3.8 3.5-3.8 2.5 0 3.7 1.9 3.8 3.8zm24.3 13V18.5c0-4.8-3.5-7.4-8.6-7.4-3.4 0-5.5.7-7.9 2.1l2.1 3.9c1.9-1 3.3-1.4 5.8-1.4 2 0 3 1.2 3 2.7v1.1c-.9-.4-2.1-.8-4.1-.8-4.8 0-8.6 2.3-8.6 7 0 5.1 4 7.6 7.9 7.6 2 0 3.8-.8 4.8-1.9v1.4h5.6v-.1zm-5.5-6.2c-.6 1-2.1 1.9-3.9 1.9-2.4 0-3.2-1.3-3.2-2.8 0-1.7 1.1-2.7 3.2-2.7 2 0 2.9.3 3.9.9v2.7z"/><path d="M168.7 28.4l-3.6-3.4c-1.5 1.7-2.8 2.7-5 2.7-2.7 0-4.4-2.3-4.4-5.7 0-3.5 1.7-5.7 4.4-5.7 2.3 0 3.6 1.3 4.8 3l3.7-3.7c-1.8-2.7-4.4-4.7-8.4-4.7-5.9 0-10.2 4.6-10.2 11.1s4.4 11 9.9 11c4.4.1 6.8-1.8 8.8-4.6z"/><path fill-rule="evenodd" d="M187.4 22.1c0-6.1-3.3-11.1-8.9-11.1-5.4 0-9.4 4.6-9.4 11.1 0 6.7 3.9 11 10 11 2.8 0 5.9-1.3 7.6-3.4l-4-3.3c-.8.9-2.1 1.5-3.6 1.5-2 0-4.2-1.1-4.4-4h12.7v-1.8zm-5.4-2.4h-7.3c.2-2.1 1.5-3.8 3.5-3.8 2.5 0 3.6 1.9 3.8 3.8zM33.1 12.5c-.7-.7-2.1-1.5-3.9-1.5-2 0-3.4.8-4.4 1.9v-1.4h-5.6v21.2h5.6V21.2c0-3.7 1.4-4.6 3.6-4.6 1.3 0 2.3.6 3.2 1.4l1.5-5.5zm57.1 20.2v-12c0-6-2.4-9.7-7.8-9.7-2.2 0-4 .8-5 1.9v-1.4h-5.6v21.2h5.6V21.1c0-3.7 1.3-4.8 3.6-4.8s3.6 1.1 3.6 4.9v11.5h5.6z"/><path d="M109 63v-5h-6.7c-1.1 0-2.7 0-3.5.1.6-.6 1.8-2 2.6-3l7.5-9.2v-4h-17v5h6.3c1.1 0 2.7 0 3.5-.1-.6.6-1.8 2-2.7 3L91.2 59v4H109zm7.7 0V41.8h-5.5V63h5.5"/><path fill-rule="evenodd" d="M137.6 63V51c0-6-2.4-9.7-7.8-9.7-2.2 0-4 .8-5 1.9v-1.4h-5.6V63h5.6V51.4c0-3.7 1.3-4.8 3.6-4.8s3.6 1.1 3.6 4.9V63h5.6z"/><path d="M147.5 59.6c0-2.1-1.7-3.8-3.8-3.8-2.1 0-3.8 1.7-3.8 3.8 0 2.1 1.7 3.8 3.8 3.8 2 0 3.8-1.7 3.8-3.8z"/></svg>