<?xml version="1.0" encoding="utf-8"?>
<!-- Generator: Adobe Illustrator 18.1.1, SVG Export Plug-In . SVG Version: 6.00 Build 0)  -->
<svg version="1.2" baseProfile="tiny" id="Layer_1" xmlns="http://www.w3.org/2000/svg" xmlns:xlink="http://www.w3.org/1999/xlink"
	 x="0px" y="0px" viewBox="0 0 236.7 91.4" xml:space="preserve">
<g>
	<path d="M22.7,41.3c-3.5,0-5.3,1.2-6.7,2.7c-1.6-1.9-3.1-2.7-5.9-2.7c-2.2,0-3.7,0.8-4.6,1.9v-1.4H0V63h5.5V51.4
		c0-3.7,1.1-4.8,3.4-4.8c2.3,0,3.4,1.1,3.4,4.9V63h5.6V51.4c0-3.7,1.1-4.8,3.4-4.8c2.3,0,3.4,1.1,3.4,4.9V63h5.6V51
		C30.3,45.1,28.1,41.3,22.7,41.3z"/>
	<path fill-rule="evenodd" d="M49.9,63V48.8c0-4.8-3.5-7.4-8.7-7.4c-3.5,0-5.5,0.7-8,2.1l2.2,3.9c2-1.1,3.3-1.4,5.9-1.4
		c2,0,3.1,1.2,3.1,2.7v1.1c-0.9-0.4-2.2-0.8-4.1-0.8c-4.9,0-8.7,2.3-8.7,7c0,5.1,4,7.6,8,7.6c2,0,3.8-0.8,4.8-1.9V63H49.9L49.9,63z
		 M44.3,56.8c-0.6,1-2.1,1.9-3.9,1.9c-2.4,0-3.3-1.3-3.3-2.8c0-1.7,1.1-2.7,3.3-2.7c2,0,2.9,0.3,3.9,0.9V56.8L44.3,56.8z"/>
	<path fill-rule="evenodd" d="M70,59.4V41.8h-5.6V43c-1-0.9-2.6-1.7-4.5-1.7c-5.3,0-8.3,4.4-8.3,10.8c0,7.9,3.8,11.3,8.3,11.3
		c2,0,3.5-0.8,4.5-1.8c0,3.3-1.2,4.3-5.6,4.9l2,4.2C68.2,70,70,66.4,70,59.4L70,59.4z M64.3,56.4c-0.8,1.1-1.7,1.8-3.5,1.8
		c-2.2,0-3.7-1.8-3.7-6.2c0-3.6,1.2-5.4,3.3-5.4c1.6,0,2.9,0.6,3.8,1.8V56.4L64.3,56.4z"/>
	<g>
		<path fill="none" d="M11.5,18.1c-0.8-1.2-2.1-1.8-3.8-1.8c-2.1,0-3.3,1.9-3.3,5.4c0,4.4,1.5,6.2,3.6,6.2c1.7,0,2.6-0.7,3.4-1.8
			V18.1z"/>
		<path fill="none" d="M76.9,55.9c0,1.5,0.9,2.8,3.3,2.8c1.8,0,3.3-0.9,3.9-1.9v-2.7c-1-0.6-1.9-0.9-3.9-0.9
			C78.1,53.2,76.9,54.2,76.9,55.9z"/>
		<path d="M81,41.3c-3.5,0-5.5,0.7-8,2.1l2.2,3.9c2-1.1,3.3-1.4,5.9-1.4c2,0,3.1,1.2,3.1,2.7v1.1c-0.9-0.4-2.2-0.8-4.1-0.8
			c-4.9,0-8.7,2.3-8.7,7c0,5.1,4,7.6,8,7.6c2,0,3.8-0.8,4.8-1.9V63h5.6V48.8C89.7,44,86.2,41.3,81,41.3z M84.1,56.8
			c-0.6,1-2.1,1.9-3.9,1.9c-2.4,0-3.3-1.3-3.3-2.8c0-1.7,1.1-2.7,3.3-2.7c2,0,2.9,0.3,3.9,0.9V56.8z"/>
		<path d="M6,36.3l2,4.2c7.4-0.8,9.1-4.4,9.1-11.4V11.5h-5.6v1.2C10.5,11.8,8.9,11,7,11c-3.3,0-5.7,1.8-7,4.7v12.7
			c1.4,3.3,4.1,4.7,7,4.7c2,0,3.4-0.8,4.5-1.8C11.5,34.6,10.3,35.7,6,36.3z M8.1,27.9c-2.2,0-3.6-1.8-3.6-6.2c0-3.6,1.2-5.4,3.3-5.4
			c1.6,0,2.9,0.6,3.8,1.8v8C10.7,27.2,9.8,27.9,8.1,27.9z"/>
	</g>
	<path fill-rule="evenodd" d="M50.7,22.1c0-6.1-3.3-11.1-8.9-11.1c-5.4,0-9.4,4.6-9.4,11.1c0,6.7,3.9,11,10,11
		c2.8,0,5.9-1.3,7.6-3.4l-4-3.3c-0.8,0.9-2.1,1.5-3.6,1.5c-2,0-4.2-1.1-4.4-4h12.7C50.7,23.5,50.7,22.9,50.7,22.1L50.7,22.1z
		 M45.3,19.7h-7.3c0.2-2.1,1.5-3.8,3.5-3.8C44,15.9,45.2,17.8,45.3,19.7L45.3,19.7z"/>
	<path fill-rule="evenodd" d="M70.3,22.1C70.3,16,67,11,61.4,11c-5.4,0-9.4,4.6-9.4,11.1c0,6.7,3.9,11,10,11c2.8,0,5.9-1.3,7.6-3.4
		l-4-3.3c-0.8,0.9-2.1,1.5-3.6,1.5c-2,0-4.2-1.1-4.4-4h12.7C70.2,23.5,70.3,22.9,70.3,22.1L70.3,22.1z M64.9,19.7h-7.3
		c0.2-2.1,1.5-3.8,3.5-3.8C63.6,15.9,64.7,17.8,64.9,19.7L64.9,19.7z"/>
	<path fill-rule="evenodd" d="M110.3,22.4c0-7.9-3.7-11.3-8.2-11.3c-2,0-3.4,0.8-4.5,1.8v-1.3H92v29l5.6-2.8v-6.2
		c1,0.9,2.6,1.7,4.5,1.7C107.3,33.1,110.3,28.7,110.3,22.4L110.3,22.4z M104.6,22.5c0,3.6-1.2,5.4-3.3,5.4c-1.6,0-2.9-0.6-3.8-1.8
		v-8c0.8-1.1,1.7-1.8,3.4-1.8C103.2,16.3,104.6,18.1,104.6,22.5L104.6,22.5z"/>
	<path fill-rule="evenodd" d="M129.9,22.1c0-6.1-3.3-11.1-8.9-11.1c-5.4,0-9.4,4.6-9.4,11.1c0,6.7,3.9,11,10,11
		c2.8,0,5.9-1.3,7.6-3.4l-4-3.3c-0.8,0.9-2.1,1.5-3.6,1.5c-2,0-4.2-1.1-4.4-4h12.7C129.9,23.5,129.9,22.9,129.9,22.1L129.9,22.1z
		 M124.5,19.7h-7.3c0.2-2.1,1.5-3.8,3.5-3.8C123.2,15.9,124.4,17.8,124.5,19.7L124.5,19.7z"/>
	<path fill-rule="evenodd" d="M148.8,32.7V18.5c0-4.8-3.5-7.4-8.6-7.4c-3.4,0-5.5,0.7-7.9,2.1l2.1,3.9c1.9-1,3.3-1.4,5.8-1.4
		c2,0,3,1.2,3,2.7v1.1c-0.9-0.4-2.1-0.8-4.1-0.8c-4.8,0-8.6,2.3-8.6,7c0,5.1,4,7.6,7.9,7.6c2,0,3.8-0.8,4.8-1.9v1.4H148.8
		L148.8,32.7z M143.3,26.5c-0.6,1-2.1,1.9-3.9,1.9c-2.4,0-3.2-1.3-3.2-2.8c0-1.7,1.1-2.7,3.2-2.7c2,0,2.9,0.3,3.9,0.9V26.5
		L143.3,26.5z"/>
	<path d="M168.7,28.4l-3.6-3.4c-1.5,1.7-2.8,2.7-5,2.7c-2.7,0-4.4-2.3-4.4-5.7c0-3.5,1.7-5.7,4.4-5.7c2.3,0,3.6,1.3,4.8,3l3.7-3.7
		c-1.8-2.7-4.4-4.7-8.4-4.7c-5.9,0-10.2,4.6-10.2,11.1c0,6.5,4.4,11,9.9,11C164.3,33.1,166.7,31.2,168.7,28.4L168.7,28.4z"/>
	<path fill-rule="evenodd" d="M187.4,22.1c0-6.1-3.3-11.1-8.9-11.1c-5.4,0-9.4,4.6-9.4,11.1c0,6.7,3.9,11,10,11
		c2.8,0,5.9-1.3,7.6-3.4l-4-3.3c-0.8,0.9-2.1,1.5-3.6,1.5c-2,0-4.2-1.1-4.4-4h12.7C187.4,23.5,187.4,22.9,187.4,22.1L187.4,22.1z
		 M182,19.7h-7.3c0.2-2.1,1.5-3.8,3.5-3.8C180.7,15.9,181.8,17.8,182,19.7L182,19.7z"/>
	<path fill-rule="evenodd" d="M33.1,12.5C32.4,11.8,31,11,29.2,11c-2,0-3.4,0.8-4.4,1.9v-1.4h-5.6v21.2h5.6V21.2
		c0-3.7,1.4-4.6,3.6-4.6c1.3,0,2.3,0.6,3.2,1.4L33.1,12.5L33.1,12.5z"/>
	<path fill-rule="evenodd" d="M90.2,32.7v-12c0-6-2.4-9.7-7.8-9.7c-2.2,0-4,0.8-5,1.9v-1.4h-5.6v21.2h5.6V21.1
		c0-3.7,1.3-4.8,3.6-4.8s3.6,1.1,3.6,4.9v11.5H90.2L90.2,32.7z"/>
	<path d="M109,63v-5h-6.7c-1.1,0-2.7,0-3.5,0.1c0.6-0.6,1.8-2,2.6-3l7.5-9.2v-4h-17v5h6.3c1.1,0,2.7,0,3.5-0.1c-0.6,0.6-1.8,2-2.7,3
		l-7.8,9.2v4H109L109,63z"/>
	<polygon points="116.7,63 116.7,41.8 111.2,41.8 111.2,63 116.7,63 	"/>
	<path fill-rule="evenodd" d="M137.6,63V51c0-6-2.4-9.7-7.8-9.7c-2.2,0-4,0.8-5,1.9v-1.4h-5.6V63h5.6V51.4c0-3.7,1.3-4.8,3.6-4.8
		c2.3,0,3.6,1.1,3.6,4.9V63H137.6L137.6,63z"/>
	<path d="M147.5,59.6c0-2.1-1.7-3.8-3.8-3.8c-2.1,0-3.8,1.7-3.8,3.8c0,2.1,1.7,3.8,3.8,3.8C145.7,63.4,147.5,61.7,147.5,59.6
		L147.5,59.6z"/>
</g>
</svg>
